<svg xmlns="http://www.w3.org/2000/svg" width="80.999" height="95.589" viewBox="0 0 80.5 95">
  <defs>
    <style>
      .cls-1 {
        fill: #1ac6df;
        fill-rule: evenodd;
      }
    </style>
  </defs>
  <path id="SEO" class="cls-1" d="M1253.63,4944.69v-15.74h-61.72v3.87a0.975,0.975,0,0,1-1.95,0v-21.3a3.837,3.837,0,0,1,3.83-3.83h57.96a3.837,3.837,0,0,1,3.83,3.83v33.17h-1.95Zm0-33.17a1.884,1.884,0,0,0-1.88-1.88h-57.96a1.884,1.884,0,0,0-1.88,1.88v7.2h61.72v-7.2Zm0,9.14h-61.65v6.35h61.65v-6.35Zm-55.25-9.4h24.72a2.89,2.89,0,1,1,0,5.78h-24.72A2.89,2.89,0,1,1,1198.38,4911.26Zm0,3.84h24.72a0.945,0.945,0,1,0,0-1.89h-24.72A0.945,0.945,0,0,0,1198.38,4915.1Zm34.12-3.84a2.89,2.89,0,1,1-2.89,2.89A2.891,2.891,0,0,1,1232.5,4911.26Zm0,3.84a0.945,0.945,0,1,0,0-1.89A0.945,0.945,0,0,0,1232.5,4915.1Zm7.84-3.84a2.89,2.89,0,1,1-2.89,2.89A2.9,2.9,0,0,1,1240.34,4911.26Zm0,3.84a0.945,0.945,0,1,0-.95-0.95A0.947,0.947,0,0,0,1240.34,4915.1Zm7.83-3.84a2.89,2.89,0,1,1-2.89,2.89A2.891,2.891,0,0,1,1248.17,4911.26Zm0,3.84a0.945,0.945,0,1,0,0-1.89A0.945,0.945,0,0,0,1248.17,4915.1Zm-57.23,23.31a0.98,0.98,0,0,1,.97.98v59.48a1.878,1.878,0,0,0,1.88,1.88h57.96a1.878,1.878,0,0,0,1.88-1.88v-14.03h1.95v14.03a3.837,3.837,0,0,1-3.83,3.83h-57.96a3.837,3.837,0,0,1-3.83-3.83v-59.48A0.982,0.982,0,0,1,1190.94,4938.41Zm20.47,10.73a9.687,9.687,0,0,0-7.16,3.04,9.941,9.941,0,0,0-3,7.24,13.95,13.95,0,0,0,1.99,6.98,8.719,8.719,0,0,1,1.24,2.85,2.12,2.12,0,0,1-.77,1.67,2.886,2.886,0,0,1-1.93.67,4.3,4.3,0,0,1-2.25-.81v8.61a9.969,9.969,0,0,0,4.23.98,10.374,10.374,0,0,0,7.53-3.01,9.833,9.833,0,0,0,3.08-7.34,12.326,12.326,0,0,0-1.83-6.15l-0.67-1.18a4.81,4.81,0,0,1-.79-2.26,2.468,2.468,0,0,1,.72-1.79,2.324,2.324,0,0,1,1.72-.74,5,5,0,0,1,1.49.33v-8.48a10.891,10.891,0,0,0-3.6-.61h0Zm19.07,12.31a3.888,3.888,0,0,1-1.94-.34,1.3,1.3,0,0,1-.55-1.21c0-.98.77-1.48,2.29-1.48h5.65v-8.54h-7.7a9.531,9.531,0,0,0-6.89,2.35,8.744,8.744,0,0,0-2.46,6.63v11.66a8.632,8.632,0,0,0,2.6,6.76q2.6,2.355,7.5,2.35h6.95v-8.5h-5.95a4.568,4.568,0,0,1-2.05-.3,1.286,1.286,0,0,1-.5-1.23,1.323,1.323,0,0,1,.49-1.17,2.922,2.922,0,0,1,1.67-.35h5.77v-6.63h-4.88Zm13.35-7.78a15.625,15.625,0,0,0,11.01,26.7,15.634,15.634,0,0,0,11.11-26.63,14.662,14.662,0,0,0-10.84-4.6A15.471,15.471,0,0,0,1243.83,4953.67Zm15.67,6.22a7.14,7.14,0,0,1,0,9.7,6.383,6.383,0,0,1-9.29-.01,7.047,7.047,0,0,1-.01-9.68A6.417,6.417,0,0,1,1259.5,4959.89Z" transform="translate(-1189.97 -4907.69)"/>
</svg>
