<svg xmlns="http://www.w3.org/2000/svg" xmlns:xlink="http://www.w3.org/1999/xlink" width="64" height="42" viewBox="0 0 64 42"><defs><path id="yr7na" d="M1431.003 3894.984c0 1.116-.9 2.003-2.003 2.003-9.63 0-17.95 5.707-21.772 13.91a12.91 12.91 0 0 1 6.77-1.906c7.168 0 13 5.83 13 13 0 7.169-5.832 13-13 13s-12.999-5.831-12.999-13c0-.254.01-.507.024-.758-.01-.079-.024-.157-.024-.239 0-15.442 12.56-28 28-28 1.104 0 2.004.887 2.004 1.99zm33.997 0a1.992 1.992 0 0 1-2.002 2.003c-9.626 0-17.94 5.702-21.76 13.903a12.916 12.916 0 0 1 6.758-1.899c7.169 0 13.01 5.83 13.01 13 0 7.169-5.841 13-13.01 13s-13-5.831-13-13c0-.255.01-.508.024-.76-.01-.079-.024-.155-.024-.237 0-15.442 12.56-28 28.002-28a1.99 1.99 0 0 1 2.002 1.99z"/></defs><g><g transform="translate(-1401 -3893)"><use fill="#ffc80a" xlink:href="#yr7na"/><use fill="#7c9dbe" xlink:href="#yr7na"/></g></g></svg>