<?xml version="1.0" encoding="iso-8859-1"?>
<!-- Generator: Adobe Illustrator 22.0.0, SVG Export Plug-In . SVG Version: 6.00 Build 0)  -->
<svg xmlns="http://www.w3.org/2000/svg" xmlns:xlink="http://www.w3.org/1999/xlink" version="1.1" id="Layer_1" x="0px" y="0px" viewBox="0 0 60 46" style="enable-background:new 0 0 60 46;" xml:space="preserve" width="512" height="512" fill="#1ac6df">
<g id="_x31_-Video">
	<path d="M53.335,46H6.725c-3.691,0-6.695-3.003-6.695-6.695V6.695C0.03,3.004,3.033,0,6.725,0h46.61   c3.692,0,6.695,3.003,6.695,6.695v32.61C60.03,42.997,57.027,46,53.335,46z M6.725,2C4.137,2,2.03,4.106,2.03,6.695v32.61   C2.03,41.894,4.136,44,6.725,44h46.61c2.589,0,4.695-2.106,4.695-4.695V6.695C58.03,4.106,55.924,2,53.335,2L6.725,2L6.725,2z"/>
	<path d="M23.44,35.943c-0.41,0-0.82-0.107-1.195-0.321c-0.761-0.435-1.215-1.217-1.215-2.093v-21.06   c0-0.876,0.455-1.658,1.215-2.093c0.761-0.434,1.666-0.427,2.42,0.019l17.82,10.53c0.741,0.438,1.184,1.213,1.184,2.074   s-0.443,1.637-1.184,2.074l-17.819,10.53C24.283,35.83,23.861,35.943,23.44,35.943z M23.441,12.059c-0.087,0-0.16,0.03-0.205,0.056   c-0.077,0.044-0.207,0.148-0.207,0.355v21.06c0,0.207,0.129,0.312,0.207,0.355c0.077,0.044,0.233,0.102,0.412-0.003l17.819-10.53   c0.175-0.104,0.202-0.265,0.202-0.353s-0.026-0.249-0.201-0.353l-17.82-10.53C23.574,12.074,23.503,12.059,23.441,12.059z"/>
</g>

</svg>
