<svg width="1690" height="228" viewBox="0 0 1690 228" fill="none" xmlns="http://www.w3.org/2000/svg">
<g clip-path="url(#clip0)">
<path d="M1010.2 114H921.8L808.77 0H897.16L1010.2 114Z" fill="url(#paint0_linear)"/>
<path d="M1010.2 114H921.8L808.77 228H897.16L1010.2 114Z" fill="url(#paint1_linear)"/>
<path d="M1010.2 114L966.24 158.44L808.77 0H897.16L1010.2 114Z" fill="url(#paint2_linear)"/>
<path d="M1125.2 114H1036.8L923.77 228H1012.16L1125.2 114Z" fill="url(#paint3_linear)"/>
<path d="M1125.2 114L1081.24 158.44L923.77 0H1012.16L1125.2 114Z" fill="url(#paint4_linear)"/>
<path d="M25.34 52.64H131.23L125.61 80.33H55L50.84 100.78H83.8C96.84 100.78 106.887 103.707 113.94 109.56C120.993 115.413 124.523 123.83 124.53 134.81C124.709 143.283 122.102 151.581 117.11 158.43C112.163 165.097 105.073 170.257 95.84 173.91C86.6067 177.563 75.7167 179.373 63.17 179.34H0L25.34 52.64ZM66.07 153.64C72.7033 153.64 77.98 152.223 81.9 149.39C83.7816 148.095 85.3073 146.347 86.3366 144.308C87.3658 142.269 87.8656 140.003 87.79 137.72C87.79 133.86 86.4567 130.993 83.79 129.12C81.14 127.25 77.03 126.31 71.49 126.31H45.79L40.36 153.64H66.07Z" fill="white"/>
<path d="M160.18 52.64H195.48L180.09 127L247.25 52.61H281.45L256.11 179.31H220.82L236.2 105.1L169.05 179.31H134.84L160.18 52.64Z" fill="white"/>
<path d="M386.89 124.4C389.977 129.1 391.583 134.618 391.5 140.24C391.55 148.566 388.295 156.571 382.45 162.5C376.45 168.9 368.397 173.85 358.29 177.35C347.77 180.913 336.727 182.685 325.62 182.59C316.715 182.595 307.842 181.534 299.19 179.43C290.63 177.371 282.404 174.108 274.76 169.74L290.5 144.74C295.885 147.712 301.638 149.961 307.61 151.43C313.617 152.987 319.795 153.79 326 153.82C334.573 153.82 341.723 152.37 347.45 149.47C353.177 146.57 356.027 142.527 356 137.34C356 130.947 350.933 127.75 340.8 127.75H308.06L313.31 101.51H343.31C348.383 101.51 352.487 100.393 355.62 98.16C357.068 97.241 358.259 95.9703 359.082 94.4665C359.906 92.9626 360.335 91.2746 360.33 89.56C360.33 85.82 358.52 82.9533 354.9 80.96C351.28 78.9667 346.393 77.9667 340.24 77.96C334.526 78.0269 328.841 78.7857 323.31 80.22C317.116 81.7696 311.087 83.9198 305.31 86.64L300.1 59.51C314.448 53.0624 329.981 49.6738 345.71 49.56C354.681 49.4549 363.607 50.8301 372.13 53.63C380.13 56.35 386.407 60.2133 390.96 65.22C395.451 69.9873 397.917 76.311 397.84 82.86C397.836 89.5069 395.568 95.9543 391.41 101.14C386.909 106.856 380.935 111.237 374.13 113.81C379.317 116.033 383.749 119.711 386.89 124.4V124.4Z" fill="white"/>
<path d="M549.33 52.64L524 179.34H488.15L497.93 130.1H449.24L439.46 179.34H403.63L429 52.64H464.8L455.39 100.06H504.08L513.49 52.64H549.33Z" fill="white"/>
<path d="M606.35 80.33L602.18 101.69H658.47L653.22 128.48H596.75L592.23 151.64H658.65L652.86 179.34H551.32L576.66 52.64H675.85L670.24 80.33H606.35Z" fill="white"/>
<path d="M707.89 174.9C698.703 170.676 690.96 163.846 685.62 155.26C680.427 146.82 677.833 137.107 677.84 126.12C677.84 111.64 681.173 98.61 687.84 87.03C694.471 75.4995 704.235 66.0855 716 59.88C728.073 53.36 741.83 50.1 757.27 50.1C768.97 50.1 779.347 52.1833 788.4 56.35C797.453 60.5167 804.22 66.4 808.7 74L782.82 94.63C776.667 84.7367 767.393 79.79 755 79.79C747.485 79.6347 740.079 81.611 733.64 85.49C727.474 89.2978 722.491 94.7483 719.25 101.23C715.711 108.211 713.91 115.944 714 123.77C714 132.343 716.777 139.22 722.33 144.4C727.883 149.58 735.44 152.177 745 152.19C757.067 152.19 767.4 147.303 776 137.53L797.18 158.34C790.81 166.281 782.528 172.475 773.11 176.34C763.93 180.02 753.43 181.86 741.61 181.86C728.783 181.867 717.543 179.547 707.89 174.9Z" fill="white"/>
<path d="M1258 63.32C1266.93 70.44 1271.39 80.44 1271.4 93.32C1271.4 103.94 1268.83 113.233 1263.7 121.2C1258.57 129.167 1251.27 135.32 1241.8 139.66C1232.33 144 1221.33 146.17 1208.8 146.17H1183.46L1176.94 179.3H1141.1L1166.44 52.6H1220C1236.42 52.6267 1249.09 56.2 1258 63.32ZM1228.77 112.37C1233.05 108.63 1235.19 103.32 1235.19 96.44C1235.19 91.2533 1233.47 87.36 1230.04 84.76C1226.61 82.16 1221.69 80.8633 1215.28 80.87H1196.46L1189.06 118H1210.42C1218.38 118 1224.5 116.123 1228.79 112.37H1228.77Z" fill="white"/>
<path d="M1309.52 174.81C1300.46 170.492 1292.86 163.638 1287.62 155.08C1282.48 146.64 1279.91 136.973 1279.92 126.08C1279.92 111.6 1283.25 98.57 1289.92 86.99C1296.51 75.4867 1306.22 66.0765 1317.92 59.84C1329.92 53.32 1343.59 50.06 1358.92 50.06C1371.71 50.06 1382.84 52.4133 1392.31 57.12C1401.36 61.45 1408.96 68.3012 1414.21 76.85C1419.43 85.6096 1422.1 95.6545 1421.91 105.85C1421.91 120.33 1418.58 133.363 1411.91 144.95C1405.3 156.445 1395.6 165.852 1383.91 172.1C1371.91 178.613 1358.24 181.87 1342.91 181.87C1330.12 181.87 1318.99 179.517 1309.52 174.81ZM1366.98 146.21C1373 142.25 1377.82 136.717 1380.92 130.21C1384.23 123.294 1385.9 115.707 1385.81 108.04C1385.81 99.48 1383.18 92.6333 1377.93 87.5C1372.68 82.3667 1365.34 79.8033 1355.93 79.81C1348.49 79.6656 1341.17 81.7556 1334.93 85.81C1328.91 89.7696 1324.09 95.3033 1320.99 101.81C1317.68 108.727 1316.01 116.313 1316.1 123.98C1316.1 132.553 1318.73 139.4 1323.98 144.52C1329.23 149.64 1336.57 152.207 1345.98 152.22C1353.43 152.37 1360.75 150.276 1367 146.21H1366.98Z" fill="white"/>
<path d="M1462.91 174.9C1453.73 170.676 1445.99 163.846 1440.65 155.26C1435.46 146.82 1432.86 137.107 1432.87 126.12C1432.87 111.64 1436.2 98.61 1442.87 87.03C1449.5 75.504 1459.26 66.091 1471.02 59.88C1483.08 53.36 1496.83 50.1 1512.28 50.1C1523.99 50.1 1534.37 52.1833 1543.42 56.35C1552.47 60.5167 1559.24 66.4 1563.73 74L1537.84 94.64C1531.69 84.7467 1522.4 79.8 1509.97 79.8C1502.45 79.6458 1495.05 81.622 1488.61 85.5C1482.45 89.3127 1477.47 94.7619 1474.22 101.24C1470.71 108.229 1468.94 115.961 1469.06 123.78C1469.06 132.353 1471.84 139.23 1477.39 144.41C1482.94 149.59 1490.49 152.187 1500.02 152.2C1512.08 152.2 1522.41 147.313 1531.02 137.54L1552.19 158.35C1545.82 166.295 1537.54 172.489 1528.12 176.35C1518.95 180.03 1508.46 181.87 1496.63 181.87C1483.81 181.87 1472.57 179.547 1462.91 174.9Z" fill="white"/>
<path d="M1684.09 81.05H1644.63L1625.45 179.34H1590.15L1609.34 81.05H1571.15L1576.76 52.64H1689.7L1684.09 81.05Z" fill="white"/>
</g>
<defs>
<linearGradient id="paint0_linear" x1="861.68" y1="-2.01" x2="1023.78" y2="198.1" gradientUnits="userSpaceOnUse">
<stop stop-color="#1AC6DF"/>
<stop offset="0.18" stop-color="#19C3DC"/>
<stop offset="0.33" stop-color="#15B9D1"/>
<stop offset="0.47" stop-color="#0FA9BF"/>
<stop offset="0.61" stop-color="#0693A7"/>
<stop offset="0.69" stop-color="#008294"/>
</linearGradient>
<linearGradient id="paint1_linear" x1="861.68" y1="230.01" x2="1023.78" y2="29.9" gradientUnits="userSpaceOnUse">
<stop stop-color="#1AC6DF"/>
<stop offset="0.19" stop-color="#19C4DD"/>
<stop offset="0.27" stop-color="#17BED6"/>
<stop offset="0.32" stop-color="#13B3CA"/>
<stop offset="0.37" stop-color="#0CA3B8"/>
<stop offset="0.41" stop-color="#058EA1"/>
<stop offset="0.43" stop-color="#008294"/>
</linearGradient>
<linearGradient id="paint2_linear" x1="862.32" y1="-1.23" x2="1029.58" y2="205.27" gradientUnits="userSpaceOnUse">
<stop stop-color="#1AC6DF"/>
<stop offset="0.32" stop-color="#1ACAE3"/>
<stop offset="0.66" stop-color="#1AD8EE"/>
<stop offset="1" stop-color="#1AECFF"/>
</linearGradient>
<linearGradient id="paint3_linear" x1="197656" y1="328889" x2="211969" y2="360109" gradientUnits="userSpaceOnUse">
<stop stop-color="#1AC6DF"/>
<stop offset="0.19" stop-color="#19C4DD"/>
<stop offset="0.27" stop-color="#17BED6"/>
<stop offset="0.32" stop-color="#13B3CA"/>
<stop offset="0.37" stop-color="#0CA3B8"/>
<stop offset="0.41" stop-color="#058EA1"/>
<stop offset="0.43" stop-color="#008294"/>
</linearGradient>
<linearGradient id="paint4_linear" x1="197785" y1="-194.879" x2="222339" y2="38344.5" gradientUnits="userSpaceOnUse">
<stop stop-color="#1AC6DF"/>
<stop offset="0.32" stop-color="#1ACAE3"/>
<stop offset="0.66" stop-color="#1AD8EE"/>
<stop offset="1" stop-color="#1AECFF"/>
</linearGradient>
<clipPath id="clip0">
<rect width="1689.7" height="228" fill="white"/>
</clipPath>
</defs>
</svg>
