<svg id="logo-img" data-name="logo-img" xmlns="http://www.w3.org/2000/svg" xmlns:xlink="http://www.w3.org/1999/xlink" viewBox="0 0 1689.7 228">
	<defs>
		<style>
			.cls-1{fill:url(#linear-gradient);}
			.cls-2{fill:url(#linear-gradient-2);}
			.cls-3{fill:url(#linear-gradient-3);}
			.cls-4{fill:url(#linear-gradient-4);}
			.cls-5{fill:url(#linear-gradient-5);}
			.cls-6{fill:#2f333e;}
		</style>
		<linearGradient id="linear-gradient" x1="861.68" y1="-2.01" x2="1023.78" y2="198.1" gradientUnits="userSpaceOnUse">
			<stop offset="0" stop-color="#1ac6df" />
			<stop offset="0.18" stop-color="#19c3dc" />
			<stop offset="0.33" stop-color="#15b9d1" />
			<stop offset="0.47" stop-color="#0fa9bf" />
			<stop offset="0.61" stop-color="#0693a7" />
			<stop offset="0.69" stop-color="#008294" />
		</linearGradient>
		<linearGradient id="linear-gradient-2" x1="861.68" y1="2883.99" x2="1023.78" y2="3084.1" gradientTransform="matrix(1, 0, 0, -1, 0, 3114)" gradientUnits="userSpaceOnUse">
			<stop offset="0" stop-color="#1ac6df" />
			<stop offset="0.19" stop-color="#19c4dd" />
			<stop offset="0.27" stop-color="#17bed6" />
			<stop offset="0.32" stop-color="#13b3ca" />
			<stop offset="0.37" stop-color="#0ca3b8" />
			<stop offset="0.41" stop-color="#058ea1" />
			<stop offset="0.43" stop-color="#008294" />
		</linearGradient>
		<linearGradient id="linear-gradient-3" x1="862.32" y1="-1.23" x2="1029.58" y2="205.27" gradientUnits="userSpaceOnUse">
			<stop offset="0" stop-color="#1ac6df" />
			<stop offset="0.32" stop-color="#1acae3" />
			<stop offset="0.66" stop-color="#1ad8ee" />
			<stop offset="1" stop-color="#1aecff" />
		</linearGradient>
		<linearGradient id="linear-gradient-4" x1="976.68" y1="2883.99" x2="1138.78" y2="3084.1" xlink:href="#linear-gradient-2" />
		<linearGradient id="linear-gradient-5" x1="977.32" y1="-1.23" x2="1144.58" y2="205.27" xlink:href="#linear-gradient-3" />
	</defs>
	<title>
		Бизнесрост
	</title>
	<g id="Layer_2" data-name="Layer 2">
		<g id="Layer_1-2" data-name="Layer 1">
			<polygon class="cls-1" points="1010.2 114 921.8 114 808.77 0 897.16 0 1010.2 114" />
			<polygon class="cls-2" points="1010.2 114 921.8 114 808.77 228 897.16 228 1010.2 114" />
			<polygon class="cls-3" points="1010.2 114 966.24 158.44 808.77 0 897.16 0 1010.2 114" />
			<polygon class="cls-4" points="1125.2 114 1036.8 114 923.77 228 1012.16 228 1125.2 114" />
			<polygon class="cls-5" points="1125.2 114 1081.24 158.44 923.77 0 1012.16 0 1125.2 114" />
			<path class="cls-6" d="M25.34,52.64H131.23l-5.62,27.69H55l-4.16,20.45H83.8q19.56,0,30.14,8.78t10.59,25.25a38.71,38.71,0,0,1-7.42,23.62q-7.42,10-21.27,15.48t-32.67,5.43H0Zm40.73,101q9.95,0,15.83-4.25a13.62,13.62,0,0,0,5.89-11.67q0-5.79-4-8.6c-2.65-1.87-6.76-2.81-12.3-2.81H45.79l-5.43,27.33Z" />
			<path class="cls-6" d="M160.18,52.64h35.3L180.09,127l67.16-74.39h34.2l-25.34,126.7H220.82l15.38-74.21-67.15,74.21H134.84Z" />
			<path class="cls-6" d="M386.89,124.4a28.1,28.1,0,0,1,4.61,15.84,31.44,31.44,0,0,1-9.05,22.26q-9,9.6-24.16,14.85a99.2,99.2,0,0,1-32.67,5.24,111.62,111.62,0,0,1-26.43-3.16,93.15,93.15,0,0,1-24.43-9.69l15.74-25a70,70,0,0,0,17.11,6.69A74.74,74.74,0,0,0,326,153.82q12.86,0,21.45-4.35T356,137.34q0-9.59-15.2-9.59H308.06l5.25-26.24h30q7.61,0,12.31-3.35a10.15,10.15,0,0,0,4.71-8.6q0-5.61-5.43-8.6t-14.66-3a70.75,70.75,0,0,0-16.93,2.26,98.19,98.19,0,0,0-18,6.42L300.1,59.51a113.27,113.27,0,0,1,45.61-9.95,81.59,81.59,0,0,1,26.42,4.07q12,4.08,18.83,11.59a25.29,25.29,0,0,1,6.88,17.64,29.25,29.25,0,0,1-6.43,18.28,40,40,0,0,1-17.28,12.67A29.21,29.21,0,0,1,386.89,124.4Z" />
			<path class="cls-6" d="M549.33,52.64,524,179.34H488.15l9.78-49.24H449.24l-9.78,49.24H403.63L429,52.64H464.8l-9.41,47.42h48.69l9.41-47.42Z" />
			<path class="cls-6" d="M606.35,80.33l-4.17,21.36h56.29l-5.25,26.79H596.75l-4.52,23.16h66.42l-5.79,27.7H551.32l25.34-126.7h99.19l-5.61,27.69Z" />
			<path class="cls-6" d="M707.89,174.9a51.62,51.62,0,0,1-22.27-19.64q-7.79-12.66-7.78-29.14,0-21.72,10-39.09A70.34,70.34,0,0,1,716,59.88q18.11-9.78,41.27-9.78,17.55,0,31.13,6.25T808.7,74L782.82,94.63Q773.59,79.79,755,79.79a39.8,39.8,0,0,0-21.36,5.7,39,39,0,0,0-14.39,15.74A48.61,48.61,0,0,0,714,123.77q0,12.86,8.33,20.63T745,152.19q18.1,0,31-14.66l21.18,20.81a60.11,60.11,0,0,1-24.07,18q-13.77,5.52-31.5,5.52Q722.37,181.87,707.89,174.9Z" />
			<path class="cls-6" d="M1258,63.32q13.39,10.68,13.4,30,0,15.93-7.7,27.88t-21.9,18.46q-14.21,6.51-33,6.51h-25.34l-6.52,33.13H1141.1l25.34-126.7H1220Q1244.63,52.64,1258,63.32Zm-29.23,49.05q6.42-5.61,6.42-15.93,0-7.78-5.15-11.68t-14.76-3.89h-18.82L1189.06,118h21.36Q1222.36,118,1228.79,112.37Z" />
			<path class="cls-6" d="M1309.52,174.81a51.83,51.83,0,0,1-21.9-19.73q-7.71-12.66-7.7-29,0-21.72,10-39.09a70.49,70.49,0,0,1,28-27.15q18-9.78,41-9.78,19.18,0,33.39,7.06a52.07,52.07,0,0,1,21.9,19.73,54.68,54.68,0,0,1,7.7,29q0,21.72-10,39.1a70.75,70.75,0,0,1-28,27.15q-18,9.77-41,9.77Q1323.73,181.87,1309.52,174.81Zm57.46-28.6a39.44,39.44,0,0,0,13.94-16,49.93,49.93,0,0,0,4.89-22.17q0-12.84-7.88-20.54t-22-7.69a37.23,37.23,0,0,0-21,6,39.44,39.44,0,0,0-13.94,16,50,50,0,0,0-4.89,22.17q0,12.86,7.88,20.54t22,7.7A37.16,37.16,0,0,0,1367,146.21Z" />
			<path class="cls-6" d="M1462.91,174.9a51.59,51.59,0,0,1-22.26-19.64q-7.79-12.66-7.78-29.14,0-21.72,10-39.09a70.43,70.43,0,0,1,28.15-27.15q18.09-9.78,41.26-9.78,17.57,0,31.14,6.25T1563.73,74l-25.89,20.64q-9.22-14.84-27.87-14.84a39.82,39.82,0,0,0-21.36,5.7,39.12,39.12,0,0,0-14.39,15.74,48.61,48.61,0,0,0-5.16,22.54q0,12.86,8.33,20.63t22.63,7.79q18.09,0,31-14.66l21.17,20.81a60,60,0,0,1-24.07,18q-13.75,5.52-31.49,5.52Q1477.4,181.87,1462.91,174.9Z" />
			<path class="cls-6" d="M1684.09,81.05h-39.46l-19.18,98.29h-35.3l19.19-98.29h-38.19l5.61-28.41H1689.7Z" />
		</g>
	</g>
</svg>
