<svg width="612" height="455" viewBox="0 0 612 455" fill="none" xmlns="http://www.w3.org/2000/svg">
<g clip-path="url(#clip0)">
<rect width="612" height="455" fill="white"/>
<path d="M243.937 384.659L244.642 384.448L244.789 385.633L247.89 384.953L251.167 385.064L253.561 385.193L256.275 382.265L259.23 379.475L261.735 376.778L262.489 378.27L263.028 381.715L261.003 381.732L260.679 384.554L261.38 385.155L259.587 386.004L259.575 387.764L258.42 389.539L258.317 391.262L257.519 392.164L245.607 390.01L244.088 385.657L243.937 384.659Z" fill="#F0F0F0"/>
<path d="M282.104 332.618L286.145 334.455L289.134 333.811L289.961 331.61L293.089 330.877L295.322 329.39L296.113 325.454L299.453 324.495L300.075 322.726L301.945 324.056L303.139 324.21L305.345 324.242L308.334 325.29L309.546 325.893L312.413 324.302L313.75 325.259L315.028 322.984L317.397 323.089L318.006 322.357L318.426 320.339L320.132 318.589L322.277 319.734L321.846 321.266L323.045 321.505L322.676 325.683L324.243 327.298L325.625 326.262L327.384 325.772L329.853 323.551L332.582 323.917L336.669 323.926L337.374 325.349L335.068 325.903L333.054 326.815L328.506 327.387L324.25 328.42L321.938 330.552L322.873 332.615L323.327 335.023L321.353 337.044L321.518 338.885L320.428 340.6L316.659 340.452L318.217 343.588L315.695 344.781L314.012 347.613L314.23 350.412L312.682 351.718L311.216 351.285L308.187 351.89L307.754 353.182L304.803 353.175L302.595 355.78L302.455 359.667L297.306 361.553L294.546 361.155L293.743 362.147L291.374 361.57L287.411 362.247L280.771 359.934L284.365 355.793L284.04 352.83L281.038 352.05L280.728 349.103L279.43 345.366L281.126 342.784L279.4 342.084L280.489 338.62L282.104 332.618Z" fill="#F0F0F0"/>
<path d="M121.132 301.179L120.629 302.979L121.192 305.231L122.835 306.505L122.756 307.873L121.469 308.625L121.23 310.307L119.387 312.801L118.714 312.442L118.635 311.312L116.44 309.58L116.095 307.107L116.43 303.534L116.971 301.896L116.303 301.061L116.037 299.37L117.756 296.734L118.007 297.745L119.073 297.27L119.917 298.706L120.865 299.252L121.132 301.179Z" fill="#F0F0F0"/>
<path d="M212.248 305.2L217.754 304.382L218.576 305.759L220.085 306.663L219.288 307.969L221.398 309.747L220.282 311.389L221.963 312.786L223.743 313.624L223.83 317.152L222.396 317.301L220.778 314.362L220.796 313.574L219.045 313.586L217.872 312.211L217.048 312.35L215.486 310.848L212.539 309.565L212.921 307.039L212.248 305.2Z" fill="#F0F0F0"/>
<path d="M106.824 266.123L106.523 268.531L104.291 268.542L105.06 269.813L103.744 273.554L102.988 274.528L99.5225 274.671L97.5227 275.974L94.2493 275.53L88.5832 274.045L87.6985 272.032L83.7821 273.038L83.3199 274.136L80.92 273.317L78.8975 273.16L77.104 272.104L77.7103 270.681L77.5577 269.643L78.7534 269.321L80.7589 270.944L81.3228 269.402L84.818 269.652L87.6504 268.6L89.5514 268.78L90.7866 269.98L91.1555 268.985L90.5944 265.14L92.0176 264.386L93.4155 261.628L96.3594 263.556L98.5883 261.104L99.9833 260.653L103.06 262.488L104.922 262.177L106.748 263.307L106.429 264.063L106.824 266.123Z" fill="#F0F0F0"/>
<path d="M114.853 284.854L116.289 284.84L115.297 287.28L117.207 289.4L116.629 291.974L115.696 292.214L114.956 292.712L113.667 293.974L113.086 296.941L109.579 294.901L108.083 292.637L106.573 291.431L104.752 289.386L103.892 287.678L101.952 285.086L102.78 282.766L104.203 284.052L105.061 282.891L106.913 282.766L110.32 283.696L113.059 283.618L114.853 284.854Z" fill="#F0F0F0"/>
<path d="M406.782 394.104L406.7 397.146L405.318 396.505L405.577 399.902L404.443 397.702L404.216 395.547L403.461 393.502L401.806 391.02L398.155 390.849L398.516 392.609L397.272 394.975L395.586 394.114L395.011 394.886L393.888 394.424L392.355 394.043L391.737 390.531L390.365 387.307L391.038 384.708L388.6 383.551L389.479 381.969L391.956 380.348L389.096 378.037L390.495 375.059L393.634 376.957L395.526 377.174L395.876 380.212L399.646 380.81L403.322 380.745L405.606 381.489L403.78 385.155L402.007 385.405L400.784 387.856L402.954 390.078L403.601 387.336L404.695 387.321L406.782 394.104Z" fill="#F0F0F0"/>
<path d="M52.6739 246.411L55.5755 246.908L59.2473 245.592L61.756 248.357L63.934 249.821L63.4845 254.016L62.4514 254.249L62.0217 257.684L58.5548 254.895L56.5224 255.373L53.755 252.466L51.9135 249.967L50.0719 249.865L49.498 247.657L52.6739 246.411Z" fill="#F0F0F0"/>
<path d="M129.323 288.319L130.463 290.578L131.998 290.176L135.044 291.03L140.863 291.318L142.829 289.922L147.494 288.644L150.378 290.64L152.708 291.214L150.652 293.47L149.204 297.327L150.482 300.372L147.07 299.659L143.034 301.331L142.991 303.958L139.389 304.454L136.597 302.615L133.424 304.063L130.493 303.91L130.212 300.415L128.228 298.706L128.879 297.951L128.449 297.314L129.115 295.604L130.626 293.915L128.701 291.567L128.345 289.567L129.323 288.319Z" fill="#F0F0F0"/>
<path d="M402.913 369.19L404.527 370.61L404.249 373.331L401.016 373.462L397.669 373.165L395.179 373.857L391.576 372.179L391.492 371.29L394.113 367.981L396.255 366.846L399.086 367.882L401.179 367.991L402.913 369.19Z" fill="#F0F0F0"/>
<path d="M132.975 230.047L136.427 230.088L136.525 230.089L136.61 230.039L140.913 227.499L141.042 227.423L141.077 227.277L141.965 223.56L145.101 221.43L145.279 221.309L145.253 221.095L144.91 218.225L147.094 217.155L147.112 217.146L147.129 217.135L151.229 214.51L155.081 216.149L155.594 217.742L155.711 218.103L156.063 217.961L158.006 217.178L161.558 218.711L161.91 221.673L161.103 223.44L161.029 223.602L161.116 223.759L163.599 228.215L163.635 228.279L163.694 228.324L165.132 229.419L164.936 230.415L164.881 230.693L165.141 230.807L167.714 231.939L168.639 233.374L167.425 234.512L164.382 234.294L164.244 234.284L164.135 234.371L163.372 234.986L163.164 235.154L163.269 235.4L164.188 237.548L165.064 241.282L162.058 241.619L161.921 241.634L161.83 241.738L160.609 243.145L160.533 243.232L160.524 243.348L160.307 246.076L159.174 245.636L159.097 245.607L159.016 245.614L155.641 245.9L154.719 244.583L154.51 244.285L154.219 244.502L152.925 245.466L151.638 244.674L151.56 244.626L151.467 244.622L148.399 244.497L144.026 242.982L143.991 242.97L143.954 242.965L139.951 242.463L139.921 242.459L139.891 242.461L136.82 242.604L136.705 242.609L136.616 242.68L134.522 244.35L133.113 244.534L133.048 242.081L133.047 242.016L133.022 241.957L131.918 239.254L134.021 238.078L134.2 237.978L134.202 237.773L134.226 235.161L134.227 235.085L134.196 235.016L133.122 232.56L132.975 230.047Z" fill="#8AE0EC" stroke="white" stroke-width="0.5"/>
<path d="M77.5575 269.643L77.7102 270.681L77.1039 272.104L78.8974 273.16L80.9199 273.317L80.6061 275.677L78.8592 276.644L75.9265 275.926L75.0686 278.229L73.1818 278.41L72.4949 277.507L70.2731 279.435L68.3623 279.705L66.6564 278.49L65.2968 275.986L63.4043 276.883L63.4622 274.285L66.3596 271.03L66.2324 269.546L68.0387 270.084L69.1255 269.085L72.4963 269.126L73.3104 267.85L77.5575 269.643Z" fill="#F0F0F0"/>
<path d="M173.88 334.575L176.557 332.513L172.954 333.961L170.099 333.894L169.527 335.06L169.247 335.086L167.364 335.264L168.29 337.196L170.231 337.818L174.293 335.867L174.168 335.48L173.88 334.575Z" fill="#F0F0F0"/>
<path d="M106.985 261.851L106.584 262.79L105.107 261.876L104.994 261.806L104.863 261.828L103.129 262.118L100.164 260.35L100.026 260.268L99.8742 260.317L98.4792 260.768L98.3897 260.797L98.3264 260.866L96.3004 263.095L93.6502 261.36L91.4453 258.803L91.4182 258.771L91.3845 258.747L89.4805 257.372L89.0842 254.937L89.0785 254.902L89.0659 254.869L88.488 253.343L91.0717 252.134L91.1323 252.106L91.1783 252.057L92.5992 250.558L95.3781 249.375L95.4568 249.341L95.5114 249.275L96.2983 248.328L97.0768 248.867L97.2281 248.971L97.4006 248.907L98.9477 248.333L100.667 250.181L100.747 250.266L100.862 250.287L103.49 250.77L103.291 252.145L103.257 252.379L103.46 252.499L105.613 253.778L105.978 253.995L106.125 253.597L106.605 252.297L108.799 252.857L109.131 254.569L109.18 254.821L109.433 254.853L112.211 255.204L113.623 257.536L113.064 257.539L112.859 257.541L112.758 257.72L112.216 258.687L111.445 258.91L111.236 258.97L111.195 259.184L110.974 260.364L110.401 260.58L110.215 260.649L110.178 260.844L110.105 261.225L108.998 261.733L107.33 261.637L107.082 261.623L106.985 261.851Z" fill="#8AE0EC" stroke="white" stroke-width="0.5"/>
<path d="M78.8549 222.408L78.9256 225.058L82.931 226.644L82.8886 229.042L86.9167 227.776L89.1455 225.919L93.6202 228.593L95.49 230.731L96.4172 234.113L95.312 235.871L96.7508 238.202L97.7316 241.663L97.4221 243.872L99.046 247.92L97.2779 248.576L96.2334 247.854L95.2398 249.049L92.3934 250.262L90.9221 251.814L88.0417 253.162L88.7356 254.994L89.1554 257.573L91.1779 259.033L93.4153 261.628L92.0175 264.386L90.5942 265.14L91.1553 268.985L90.7864 269.98L89.5512 268.78L87.6502 268.6L84.8178 269.652L81.3226 269.402L80.7587 270.944L78.7532 269.321L77.5575 269.643L73.3104 267.85L72.4963 269.126L69.1254 269.085L69.6286 264.88L71.6327 260.782L65.9228 259.671L64.053 258.084L64.2762 255.405L63.4848 254.016L63.9343 249.821L63.2686 243.193L65.65 243.19L66.6535 240.771L67.6414 234.8L66.9009 232.563L67.6753 231.152L70.9868 230.789L71.7218 232.259L74.4128 228.962L73.5068 226.427L73.3245 222.548L76.3194 223.455L78.8549 222.408Z" fill="#F0F0F0"/>
<path d="M89.8256 218.055L87.4469 223.667L83.3001 219.765L82.7475 216.862L88.5606 214.521L89.8256 218.055ZM82.78 212.047L81.8119 214.733L80.6317 213.963L77.7782 219.033L78.8551 222.409L76.3196 223.457L73.3247 222.549L71.7163 218.701L71.5962 211.464L72.2562 209.521L73.3926 207.344L76.8835 206.892L78.2743 204.872L81.4628 202.791L81.3285 206.573L80.1554 208.942L80.6303 210.961L82.78 212.047Z" fill="#F0F0F0"/>
<path d="M135.885 202.32L136.344 197.905L134.887 198.854L132.373 196.169L132.028 191.769L137.04 189.61L142.032 188.476L146.331 189.765L150.421 189.535L151.018 190.892L148.198 195.318L149.372 202.331L147.675 204.676L144.407 204.663L140.997 201.919L139.26 201.006L135.885 202.32Z" fill="#F0F0F0"/>
<path d="M3.73394 301.045L3.93325 297.247L2.31494 294.913L7.92028 290.991L12.7695 291.976L18.0907 291.942L22.3081 292.87L25.597 292.585L32.0023 292.766L33.5824 294.872L40.8767 297.318L42.3169 296.158L46.776 298.582L51.3694 297.889L51.5814 300.984L47.8262 304.498L42.748 305.606L42.3946 307.361L39.9595 310.235L38.433 314.413L39.9778 317.316L37.6854 319.566L36.8289 322.819L33.8368 323.811L31.0299 327.613L26.0012 327.688L22.2233 327.595L19.7415 329.328L18.2278 331.173L16.2887 330.769L14.8216 329.117L13.6981 326.289L9.99933 325.523L9.66859 323.882L11.1371 322.014L11.6812 320.653L10.3145 319.159L11.4084 315.837L9.82124 312.777L11.5328 312.355L11.6925 309.922L12.3356 309.165L12.3865 305.101L14.2181 303.68L13.1101 301.031L10.8007 300.844L10.1223 301.514L7.78178 301.52L6.78962 298.918L5.17131 299.695L3.73394 301.045Z" fill="#F0F0F0"/>
<path d="M152.841 101.109L152.263 108.747L158.332 115.799L154.675 123.541L159.284 134.787L156.616 142.933L160.183 149.794L158.564 155.653L164.43 161.668L162.939 166.056L159.258 170.935L150.773 181.402L143.582 182.04L136.613 184.963L130.165 186.629L127.871 182.297L124.034 179.656L124.916 171.56L122.991 163.916L124.881 158.858L128.473 153.287L137.54 143.365L140.184 141.406L139.773 137.396L134.261 132.838L132.924 129.022L132.819 113.306L126.633 106.023L121.352 100.649L123.727 97.6984L128.131 103.568L133.306 103.025L137.56 105.667L141.339 100.806L143.282 92.5312L149.435 88.6091L154.52 93.2053L152.841 101.109Z" fill="#F0F0F0"/>
<path d="M77.4218 299.601L76.113 303.69L74.3139 302.617L73.3966 299.047L74.1965 297.058L76.749 295.002L77.4218 299.601ZM53.7553 252.466L56.5212 255.373L58.555 254.895L62.0219 257.684L62.9081 258.212L64.0515 258.084L65.9214 259.671L71.6313 260.783L69.6286 264.88L69.1254 269.085L68.0372 270.084L66.2309 269.546L66.3581 271.03L63.4593 274.285L63.4014 276.883L65.2938 275.986L66.6549 278.49L66.491 280.092L67.657 282.209L66.2832 283.917L67.305 288.212L69.4534 288.91L68.9997 291.29L65.4097 294.361L57.5939 292.893L51.8233 294.651L51.3696 297.891L46.7762 298.583L42.3171 296.158L40.8755 297.318L33.5812 294.873L32.001 292.766L34.0504 289.488L34.8051 278.355L30.7149 272.329L27.7921 269.38L21.7359 267.121L21.3359 262.787L26.4748 261.483L33.1289 263.025L31.8724 256.177L35.6136 258.79L44.8399 254.022L46.0299 248.927L49.4955 247.657L50.0693 249.865L51.9109 249.968L53.7553 252.466Z" fill="#F0F0F0"/>
<path d="M9.97567 228.327L10.6919 225.141L10.7092 225.064L10.6921 224.987L9.96268 221.701L12.7195 221.464L16.6767 225.421L14.8021 229.521L12.1293 228.285L12.0525 228.249L11.9678 228.252L9.97567 228.327ZM26.9992 196.441L23.0793 203.934L22.7141 204.632L23.4783 204.441L27.471 203.44L31.3515 203.474L30.3996 208.966L26.8657 215.323L26.6072 215.788L27.136 215.846L31.0277 216.273L31.2618 216.824L31.2625 216.825L34.7917 225.004L34.8492 225.138L34.9839 225.192L37.5422 226.224L39.9311 233.71L39.9365 233.727L39.9436 233.744L41.0729 236.346L41.1415 236.504L41.3082 236.547L45.8117 237.716L45.3802 241.427L43.457 243.22L43.2667 243.397L43.3795 243.631L44.8491 246.685L41.5799 249.702L36.4188 249.646L36.3727 249.645L36.328 249.657L29.7338 251.331L28.0156 250.192L27.7618 250.024L27.5579 250.25L25.0709 253.011L21.6003 252.346L21.4345 252.314L21.3056 252.423L18.7119 254.618L17.1925 253.731L22.6611 247.566L26.1283 246.232L27.3035 245.779L26.0646 245.554L26.0335 245.549L26.0299 245.548L20.028 244.521L19.1215 242.465L22.9551 240.616L23.3088 240.446L23.1019 240.112L21.0019 236.722L21.6755 232.86L27.2376 233.427L27.2554 233.429H27.2734H27.2805H27.5846L27.6299 233.128L28.2136 229.252L28.2333 229.121L28.1623 229.009L25.5106 224.841L25.5081 224.837L25.4512 224.745L25.3757 224.623L25.2364 224.588L20.5804 223.423L19.7867 221.857L21.1547 218.91L21.2387 218.729L21.1271 218.564L19.824 216.633L19.5246 216.19L19.2343 216.639L17.7116 218.997L17.5183 213.343L17.5154 213.259L17.4751 213.186L15.5346 209.64L16.9405 202.244L19.8764 196.433L22.7795 196.984L22.8355 196.995L22.892 196.987L26.9992 196.441Z" fill="#8AE0EC" stroke="white" stroke-width="0.5"/>
<path d="M204.209 302.87L204.8 300.608L203.809 296.966L201.519 294.982L199.323 294.361L197.872 292.699L198.355 292.056L201.705 292.986L207.539 293.864L212.934 296.453L213.629 297.451L216.032 296.607L219.728 297.729L220.942 299.92L223.432 301.151L222.403 301.88L224.355 304.731L223.815 305.344L221.678 305.034L218.726 303.524L217.755 304.382L212.248 305.2L208.431 302.618L204.209 302.87Z" fill="#F0F0F0"/>
<path d="M133.455 332.351L135.622 333.985L138.706 333.709L141.654 334.052L141.559 334.893L143.719 334.314L143.223 335.737L137.516 336.147L137.555 335.351L132.72 334.41L133.455 332.351ZM144.964 302.73L143.737 306.016L142.796 306.601L140.382 306.454L138.314 305.959L133.515 307.315L136.262 310.229L134.25 311.069L132.042 311.074L129.946 308.411L129.203 309.548L130.087 312.623L132.07 315.022L130.576 316.135L132.784 318.467L134.746 319.927L134.805 322.754L132.886 321.134L131.139 321.43L132.308 323.972L131.012 324.241L129.598 323.26L131.294 328.846L130.47 328.865L129.84 327.08L129.03 327.045L128.663 328.908L128.021 328.485L128.165 327.441L127.372 325.964H126.472L126.639 327.155L126.285 327.533L125.415 326.769L124.874 325.326L125.607 324.522L125.102 323.476L124.526 322.936L123.928 322.804L123.234 321.471L124.058 320.737L124.563 320.053L125.355 320.197L125.71 319.618L126.544 319.388L127.509 320.039L128.291 320.278L128.836 319.399L127.511 319.28L126.726 319.006L124.96 319.402L123.237 319.47L121.692 317.15L121.436 316.791L121.672 315.884L119.661 314.251L119.393 312.796L121.236 310.301L121.473 308.619L122.761 307.866L122.84 306.498L125.432 306.036L126.943 304.891L129.091 304.993L129.743 304.078L130.497 303.903L133.428 304.054L136.601 302.607L139.394 304.446L142.995 303.95L143.039 301.322L144.964 302.73Z" fill="#F0F0F0"/>
<path d="M114.156 278.957L115.118 281.148L116.378 282.751L114.853 284.854L113.059 283.619L110.32 283.696L106.913 282.766L105.061 282.891L104.203 284.052L102.78 282.766L101.952 285.086L103.892 287.678L104.752 289.386L106.573 291.432L108.083 292.637L109.579 294.901L113.086 296.941L112.651 297.852L108.925 295.864L106.627 293.92L103.003 292.306L99.6705 288.274L100.471 287.861L98.6628 285.532L98.5893 283.65L96.0411 282.766L94.827 285.177L93.6567 283.309L93.7458 281.359L93.8871 281.268L96.6488 281.46L97.3738 280.508L98.7222 281.429L100.277 281.538L100.263 279.961L101.639 279.381L102.025 277.082L105.18 275.561L106.439 276.268L109.401 278.714L112.675 279.804L114.156 278.957Z" fill="#F0F0F0"/>
<path d="M103.744 273.554L105.06 269.813L104.291 268.542L106.523 268.531L106.824 266.123L108.841 267.634L110.302 268.275L113.628 267.554L113.947 266.369L115.522 266.193L117.451 265.273L117.88 265.653L119.74 264.913L120.67 263.511L121.969 263.146L126.214 264.957L127.059 264.349L129.258 265.964L129.535 267.547L127.114 268.78L125.24 272.734L122.843 276.637L119.666 277.714L117.192 277.461L114.156 278.957L112.675 279.804L109.402 278.714L106.439 276.268L105.18 275.561L104.41 273.618L103.744 273.554Z" fill="#F0F0F0"/>
<path d="M14.9758 229.99L15.6288 234.739L12.6339 240.567L5.60957 244.357L0 243.392L3.21255 236.636L1.14343 229.899L6.53393 224.594L9.52879 221.383L10.3471 225.064L9.52879 228.697L11.981 228.605L14.9758 229.99Z" fill="#F0F0F0"/>
<path d="M181.088 346.644L180.398 348.118L178.964 347.471L178.135 350.574L179.13 351.096L178.118 351.733L177.947 352.95L179.81 352.324L179.903 354.119L177.929 361.42L175.324 353.569L176.477 352.047L176.208 351.784L177.255 349.615L178.059 346.09L178.626 344.898L178.735 344.85L180.062 344.859L180.426 344.033L181.489 343.971L181.55 345.898L181.013 346.611L181.088 346.644Z" fill="#F0F0F0"/>
<path d="M101.042 319.872L99.6142 323.806L100.206 325.342L99.3753 327.879L96.3437 326.023L94.3283 325.49L88.7964 322.966L89.3518 320.4L93.9891 320.857L98.0312 320.31L101.042 319.872ZM76.0353 304.583L78.4126 308.289L77.8557 315.088L76.0537 314.766L74.4368 316.463L72.9358 315.115L72.7775 308.919L71.873 305.944L74.0524 306.205L76.0353 304.583ZM88.583 274.045L94.2506 275.53L93.8209 278.344L94.7692 280.757L91.6146 279.933L88.3922 281.935L88.6113 284.714L88.1265 286.298L89.4253 289.109L93.141 291.867L95.1339 296.343L99.5435 300.649L102.649 300.617L103.614 301.789L102.502 302.842L106.051 304.742L108.961 306.325L112.358 309.038L112.77 310.003L112.029 311.849L109.83 309.44L106.387 308.588L104.719 311.926L107.583 313.826L107.112 316.482L105.457 316.783L103.34 321.103L101.689 321.488L101.705 319.956L102.513 317.252L103.374 316.169L101.826 313.215L100.618 310.625L98.9726 309.982L97.8023 307.744L95.2554 306.797L93.541 304.696L90.6083 304.355L87.5117 301.977L83.8864 298.517L81.1926 295.424L79.9559 290.049L77.9843 289.41L74.7604 287.591L72.9358 288.338L70.6462 290.885L68.9997 291.286L69.4534 288.906L67.305 288.208L66.2832 283.913L67.657 282.205L66.491 280.088L66.6549 278.485L68.3608 279.701L70.2717 279.432L72.4935 277.504L73.1803 278.408L75.0672 278.227L75.925 275.923L78.8578 276.641L80.6032 275.674L80.917 273.314L83.3183 274.135L83.779 273.037L87.6954 272.031L88.583 274.045Z" fill="#F0F0F0"/>
<path d="M180.398 348.118L181.088 346.644L185.503 348.497L193.264 343.494L194.861 349.205L194.106 349.907L186.169 352.234L190.119 356.836L188.809 357.611L188.156 359.139L185.133 359.768L184.185 361.404L182.472 362.794L178.062 362.076L177.929 361.42L179.904 354.119L179.81 352.324L180.397 350.965L180.398 348.118Z" fill="#F0F0F0"/>
<path d="M573.086 339.837L573.592 341.468L571.36 344.33L569.735 342.815L567.702 343.913L566.651 346.664L564.069 345.327L564.1 343.089L566.292 340.258L568.546 340.81L570.174 338.807L573.086 339.837ZM598.201 325.304L596.707 329.234L597.398 331.681L595.333 335.095L590.271 337.36L583.304 337.654L577.658 343.087L574.995 341.266L574.831 337.7L567.938 338.756L563.249 341L558.61 341.091L562.628 344.572L559.984 352.502L557.422 354.443L555.505 352.651L556.477 348.466L553.97 347.106L552.36 343.882L556.106 342.426L558.185 339.439L562.17 336.965L565.078 333.668L572.966 332.222L577.203 333.214L581.349 324.497L583.991 326.858L589.804 321.895L592.058 319.949L594.55 313.754L593.87 307.959L595.545 304.662L599.758 303.698L601.918 310.917L601.801 315.07L598.134 320.161L598.201 325.304ZM609.827 288.654L612.614 289.826L615.417 287.492L616.297 293.638L610.419 295.119L606.949 300.437L600.718 296.787L598.563 302.612L594.154 302.692L593.609 297.404L595.569 293.253L599.804 292.952L600.958 285.347L602.13 280.981L606.787 286.8L609.827 288.654Z" fill="#F0F0F0"/>
<path d="M320.748 298.994L321.635 296.648L324.243 295.889L330.764 297.739L331.379 294.563L333.629 293.441L339.272 295.715L340.713 295.12L347.283 295.269L353.163 295.833L355.151 297.762L357.592 298.546L357.035 299.752L350.791 302.624L349.379 304.713L344.295 305.335L342.796 308.662L338.602 307.966L335.863 308.981L332.08 311.42L332.627 312.622L331.499 313.793L324.005 314.567L319.111 312.907L314.813 313.304L315.189 310.342L319.503 311.204L320.953 309.613L323.967 310.122L329.043 306.383L324.346 303.622L321.524 304.932L318.598 302.952L321.925 299.519L320.748 298.994Z" fill="#F0F0F0"/>
<path d="M449.678 441.019L448.067 438.93L446.062 434.776L445.124 429.9L447.662 426.529L452.786 425.752L456.5 426.335L459.771 427.927L461.564 425.126L465.075 426.622L465.993 429.328L465.506 434.17L458.845 437.266L460.585 439.699L456.425 439.99L452.995 441.604L449.678 441.019Z" fill="#F0F0F0"/>
<path d="M557.239 298.306L557.793 299.24L556.288 298.921L554.568 300.723L553.385 302.523L553.534 306.294L551.487 307.448L550.781 308.363L549.287 309.894L546.649 310.744L544.929 312.124L544.804 314.34L544.342 314.904L545.919 315.731L548.164 317.953L547.593 319.173L545.905 319.505L543.105 319.748L541.561 322.009L539.792 321.831L539.544 322.283L537.62 321.334L537.141 322.272L535.981 322.686L535.841 321.746L534.815 321.289L533.749 320.49L534.833 318.275L535.767 317.682L535.415 316.757L536.42 314.014L536.162 313.177L533.848 312.62L531.979 311.242L535.206 307.925L539.573 305.121L542.297 301.384L544.178 303.041L547.603 303.233L546.985 300.442L553.105 298.146L554.679 295.135L557.239 298.306Z" fill="#F0F0F0"/>
<path d="M548.164 317.953L551.584 323.864L552.565 327.072L552.596 332.704L551.102 335.364L547.514 336.288L544.347 338.278L540.776 338.688L540.334 336.076L541.068 332.45L539.316 327.36L542.26 326.531L539.544 322.283L539.793 321.831L541.561 322.009L543.106 319.748L545.905 319.505L547.593 319.173L548.164 317.953Z" fill="#F0F0F0"/>
<path d="M121.814 300.135L121.636 301.223L121.132 301.179L120.865 299.252L119.917 298.706L119.073 297.27L119.814 296.066L120.762 295.679L121.311 293.884L122.021 293.584L122.584 294.349L123.325 294.685L123.843 295.543L124.495 295.797L125.265 296.794L125.828 296.764L125.384 298.07L124.909 298.706L125.04 299.106L124.154 299.311L121.814 300.135Z" fill="#F0F0F0"/>
<path d="M229.652 359.267L230.479 361.271L230.124 362.304L231.4 365.702L228.598 365.817L227.611 363.675L224.081 363.239L226.988 358.886L229.652 359.267Z" fill="#F0F0F0"/>
<path d="M181.489 343.971L180.427 344.033L180.062 344.859L178.735 344.85L180.147 340.998L182.117 337.635L182.192 337.467L183.974 337.712L184.623 339.587L182.462 341.381L181.489 343.971Z" fill="#F0F0F0"/>
<path d="M363.647 453.418L363.051 457.548L361.39 458.674L357.943 459.58L356.056 456.431L355.354 450.724L357.148 444.254L359.886 446.471L361.732 449.277L363.647 453.418Z" fill="#F0F0F0"/>
<path d="M129.616 226.89L129.298 225.154L129.722 223.278L127.97 222.186L123.82 220.976L122.978 215.091L127.516 212.91L134.162 213.368L138.054 212.663L138.611 214.144L140.72 214.599L144.529 218.018L144.902 221.137L141.653 223.345L140.733 227.195L136.43 229.735L132.6 229.689L131.649 227.613L129.616 226.89Z" fill="#F0F0F0"/>
<path d="M63.4848 254.016L64.2763 255.405L64.053 258.084L62.9096 258.211L62.022 257.684L62.4517 254.249L63.4848 254.016Z" fill="#F0F0F0"/>
<path d="M122.978 215.091L123.114 209.709L125.061 205.137L128.797 202.617L131.943 208.099L135.123 207.958L135.885 202.32L139.26 201.005L140.997 201.919L144.407 204.663L147.675 204.676L149.584 206.365L149.922 209.886L151.195 214.111L146.939 216.838L144.529 218.018L140.72 214.599L138.611 214.144L138.054 212.663L134.162 213.368L127.516 212.91L122.978 215.091Z" fill="#F0F0F0"/>
<path d="M145.025 265.546L145.97 264.671L148.603 264.082L151.525 265.932L153.154 266.154L154.945 267.742L154.661 269.731L156.104 270.686L156.676 273.113L158.06 274.58L157.78 275.438L158.52 276.019L157.469 276.443L155.135 276.275L154.745 275.482L153.916 275.94L154.196 276.963L153.111 278.781L152.42 280.724L151.422 281.336L150.712 278.755L151.129 276.319L151.003 273.796L148.717 270.344L147.46 267.874L146.232 266.124L145.025 265.546Z" fill="#F0F0F0"/>
<path d="M118.007 297.745L117.756 296.734L116.037 299.37L116.303 301.061L115.473 300.651L114.364 298.912L112.651 297.851L113.086 296.941L113.667 293.974L114.956 292.712L115.697 292.214L116.748 293.149L117.326 293.899L118.629 294.483L120.14 295.604L119.814 296.066L119.073 297.27L118.007 297.745Z" fill="#F0F0F0"/>
<path d="M121.132 301.179L121.636 301.223L121.814 300.135L124.154 299.311L125.04 299.106L126.39 298.795L128.228 298.706L130.212 300.415L130.493 303.91L129.738 304.085L129.085 305L126.939 304.898L125.428 306.043L122.836 306.505L121.192 305.231L120.628 302.979L121.132 301.179Z" fill="#F0F0F0"/>
<path d="M434.008 401.937L431.697 403.754L428.899 403.942L427.092 408.451L425.419 409.206L427.335 412.841L429.85 415.851L431.472 418.561L430.022 422.119L428.654 422.873L429.6 424.916L432.243 428.145L432.696 430.406L432.634 432.283L434.183 435.959L432.007 439.704L430.087 443.819L429.706 440.848L430.923 437.775L429.59 435.395L429.912 431L428.304 428.902L427.012 424.04L426.295 418.879L424.582 415.475L421.972 417.537L417.468 420.46L415.246 420.096L412.791 419.134L414.156 414.041L413.329 410.168L410.223 405.37L410.707 403.865L408.388 403.328L405.577 399.902L405.318 396.505L406.701 397.146L406.783 394.104L408.737 393.095L408.319 391.284L409.214 389.827L409.368 385.378L412.464 386.362L414.231 382.797L414.433 380.68L416.62 377.014L416.499 374.5L421.63 371.444L424.462 372.245L424.136 369.513L425.525 368.696L425.227 367.002L427.545 366.67L428.869 369.298L430.597 370.36L430.715 373.749L430.555 377.377L426.803 381.024L426.326 386.161L430.51 385.445L431.455 389.403L433.964 390.233L432.811 393.776L435.753 395.37L437.469 396.152L440.375 394.917L440.495 396.669L437.123 399.417L436.279 400.966L434.008 401.937Z" fill="#F0F0F0"/>
<path d="M59.0763 234.69L58.8346 235.973L59.5187 236.196L59.8183 236.773L59.9384 237.297L60.4896 237.494L60.532 237.772L60.0402 238.147L59.496 238.181V238.593L59.8734 239.251L59.3293 239.89L59.8791 240.066L60.9984 238.976L61.6754 237.976V237.297L61.4394 236.827L60.7921 236.503L60.9405 235.767L60.7921 235.119L61.3801 233.706L61.9623 232.97L63.6075 232.375L66.9006 232.563L67.6412 234.8L66.6532 240.771L65.6498 243.19L63.2683 243.193L63.934 249.821L61.756 248.357L59.2473 245.592L55.5754 246.908L52.6738 246.411L53.666 244.66L54.962 242.951L56.7697 241.186L57.8396 238.229L58.1859 235.145L59.0763 234.69Z" fill="#F0F0F0"/>
<path d="M151.152 76.3851L163.547 85.2044L158.443 88.3505L162.785 95.5798L156.042 100.086L152.841 101.109L154.52 93.2054L149.435 88.6092L143.281 92.5312L141.338 100.805L137.56 105.665L133.304 103.022L128.13 103.565L123.726 97.6956L121.35 100.647L118.892 101.103L118.31 108.287L110.842 106.557L109.793 112.517L105.989 112.482L103.372 119.892L99.408 131.011L93.2543 144.438L94.6973 147.592L93.3178 151.202L89.3873 151.048L86.8136 159.395L87.0567 170.764L89.5894 174.973L88.2779 184.481L84.9805 189.868L83.2336 194.313L80.5751 189.577L72.7508 198.433L67.4678 200.193L61.9882 196.356L60.572 188.068L59.3184 169.332L62.9676 163.856L73.4307 156.529L81.2549 147.221L88.5097 134.075L98.0314 114.625L104.668 106.605L115.558 92.6231L124.255 87.5463L130.774 88.1682L136.809 78.2818L144.036 78.8203L151.152 76.3851Z" fill="#F0F0F0"/>
<path d="M388.743 368.723L388.436 370.64L388.957 373.454L388.504 375.199L385.204 375.273L380.436 374.245L377.374 373.827L375.088 371.575L369.657 371.002L364.488 368.504L360.751 366.311L356.913 364.612L358.45 360.384L360.966 358.32L362.608 357.227L365.786 358.631L369.787 361.59L372.013 362.24L373.344 364.407L376.422 365.294L379.639 367.262L384.122 368.287L388.743 368.723Z" fill="#F0F0F0"/>
<path d="M272.793 398.033L271.313 400.919L269.517 400.699L268.693 401.699L268.057 403.825L268.545 406.616L268.17 407.128L266.347 407.114L263.872 408.669L263.486 410.69L262.579 411.563L260.114 411.531L258.562 412.572L258.582 414.24L256.665 415.385L254.479 414.996L251.829 416.384L249.997 416.617L248.704 413.74L245.606 406.898L257.494 402.718L260.135 394.278L258.319 391.26L258.422 389.538L259.577 387.762L259.588 386.003L261.382 385.153L260.681 384.553L261.004 381.73L263.03 381.713L264.806 384.674L267.018 386.24L269.925 386.803L272.272 387.587L274.061 390.046L275.129 391.467L276.548 392.007L276.54 392.958L275.097 395.491L274.464 396.679L272.793 398.033ZM263.006 377.476L262.49 378.27L261.735 376.776L262.89 375.28L263.38 375.663L263.006 377.476Z" fill="#F0F0F0"/>
<path d="M540.345 449.873L540.748 452.515L540.981 454.742L539.631 458.369L538.184 454.328L536.331 456.341L537.598 459.259L536.461 461.114L531.797 458.817L530.683 455.949L531.892 454.064L529.382 452.186L528.137 453.832L526.272 453.68L523.34 455.893L522.684 454.731L524.24 451.384L526.736 450.265L528.897 448.764L530.298 450.566L533.311 449.476L533.957 447.7L536.758 447.594L536.522 444.507L539.735 446.401L540.067 448.408L540.345 449.873ZM530.857 442.435L529.433 443.749L528.192 446.272L526.947 447.452L524.506 444.693L525.321 443.624L526.316 442.504L526.754 440.018L528.939 439.782L528.302 442.479L531.235 438.61L530.857 442.435ZM509.148 446.281L503.876 450.061L505.82 447.276L508.682 444.812L511.062 442.046L513.14 438.063L513.845 441.334L511.229 443.537L509.148 446.281ZM522.538 435.963L524.918 437.208L527.44 437.203L527.362 438.88L525.528 440.583L523.01 441.786L522.87 439.925L523.152 437.878L522.538 435.963ZM536.881 434.872L537.995 439.359L534.936 438.295L535.02 439.642L535.991 442.114L534.105 443.01L533.941 440.195L532.747 439.987L532.128 437.557L534.458 437.878L534.408 436.356L531.985 433.281L535.79 433.37L536.881 434.872ZM521.128 431.213L520.076 434.7L518.38 432.688L516.356 429.609L519.751 429.757L521.128 431.213ZM520.311 408.963L522.755 410.147L523.976 409.067L524.336 410.122L523.692 411.839L525.044 414.798L524.001 418.214L521.665 419.573L521.042 422.869L521.928 426.111L524.028 426.559L525.781 426.078L530.73 428.328L530.353 430.533L531.646 431.504L531.233 433.364L528.145 431.383L526.681 429.257L525.66 430.742L523.138 428.318L519.538 428.918L517.565 428.022L517.767 426.344L519.005 425.309L517.822 424.368L517.31 425.835L515.354 423.496L514.761 421.719L514.614 417.799L516.209 419.149L516.619 412.711L517.911 408.957L520.311 408.963Z" fill="#F0F0F0"/>
<path d="M99.046 247.92L97.4221 243.872L97.7316 241.663L96.7508 238.202L95.312 235.871L96.4172 234.113L95.4901 230.731L98.1981 228.759L104.383 225.627L109.373 223.312L113.328 224.471L113.626 226.135L117.448 226.22L122.33 226.991L129.617 226.89L131.649 227.613L132.6 229.689L132.773 232.643L133.872 235.158L133.848 237.77L131.473 239.098L132.695 242.09L132.77 244.935L134.763 250.435L134.339 252.18L132.373 252.902L128.774 258.003L129.796 260.724L128.93 260.373L125.165 258.044L122.313 258.903L120.441 258.28L118.099 259.579L116.101 257.426L114.471 258.253L114.248 257.886L112.425 254.875L109.478 254.502L109.103 252.57L106.384 251.876L105.793 253.475L103.641 252.196L103.888 250.484L100.926 249.94L99.046 247.92Z" fill="#F0F0F0"/>
<path d="M337.375 325.349L340.303 327.649L341.476 331.409L347.993 333.375L344.166 337.426L339.749 338.138L333.737 336.968L331.795 339.033L333.198 343.197L334.575 346.382L337.775 348.692L334.394 351.381L334.456 354.672L330.608 359.264L328.124 363.858L323.979 368.559L319.377 368.22L315.01 372.877L317.603 374.859L318.054 378.238L320.282 380.451L321.067 384.178L312.347 384.167L309.708 387.046L306.804 385.956L305.622 382.848L302.561 379.535L295.26 380.355L288.821 380.436L283.241 381.048L284.733 375.967L290.449 373.693L290.122 371.654L288.226 370.937L288.117 367.012L284.328 365.039L282.732 362.317L280.771 359.934L287.411 362.247L291.374 361.57L293.743 362.147L294.546 361.155L297.306 361.553L302.455 359.666L302.595 355.78L304.803 353.175L307.754 353.182L308.188 351.89L311.216 351.285L312.682 351.718L314.23 350.412L314.012 347.613L315.695 344.781L318.217 343.588L316.659 340.452L320.429 340.6L321.518 338.885L321.353 337.044L323.327 335.023L322.874 332.615L321.938 330.552L324.25 328.42L328.506 327.387L333.054 326.815L335.068 325.903L337.375 325.349Z" fill="#F0F0F0"/>
<path d="M180.399 348.118L180.397 350.965L179.811 352.324L177.948 352.95L178.119 351.733L179.131 351.096L178.136 350.574L178.964 347.471L180.399 348.118Z" fill="#F0F0F0"/>
<path d="M3.73416 301.045L5.17153 299.695L6.78984 298.918L7.782 301.52L10.1225 301.514L10.8009 300.844L13.1103 301.031L14.2184 303.68L12.3867 305.101L12.3358 309.165L11.6927 309.922L11.533 312.355L9.82146 312.777L11.4087 315.837L10.3147 319.158L11.6814 320.652L11.1373 322.013L9.66881 323.882L9.99955 325.523L8.40668 326.805L6.31776 326.111L4.27266 326.655L4.87759 322.775L4.50588 319.697L2.73212 319.233L1.78516 317.321L2.10036 313.993L3.68046 312.134L3.96172 310.052L4.78852 306.933L4.69949 304.717L3.90802 302.829L3.73416 301.045Z" fill="#F0F0F0"/>
<path d="M240.888 382.452L240.625 379.285L241.693 376.99L242.776 376.518L243.975 377.892L244.044 380.448L243.185 383.005L242.085 383.313L240.888 382.452Z" fill="#F0F0F0"/>
<path d="M129.535 267.547L131.246 266.282L133.697 266.938L136.238 266.959L138.079 268.398L139.431 267.495L142.355 266.928L143.353 265.545L145.025 265.546L146.232 266.124L147.46 267.874L148.717 270.344L151.004 273.796L151.129 276.319L150.712 278.755L151.422 281.336L153.19 282.372L155.051 281.467L156.849 282.433L156.941 283.877L155.02 285.077L153.816 284.556L152.708 291.214L150.378 290.64L147.494 288.644L142.829 289.922L140.863 291.318L135.044 291.03L131.998 290.177L130.463 290.578L129.323 288.319L128.598 287.357L129.517 286.423L128.538 285.733L127.295 286.974L124.984 285.363L124.673 283.062L122.258 281.74L121.814 279.945L119.666 277.714L122.843 276.637L125.24 272.734L127.114 268.78L129.535 267.547Z" fill="#F0F0F0"/>
<path d="M122.258 281.74L124.673 283.062L124.984 285.363L127.295 286.974L128.538 285.733L129.516 286.423L128.598 287.357L129.323 288.319L128.345 289.567L128.701 291.567L130.626 293.915L129.115 295.604L128.449 297.314L128.879 297.951L128.228 298.706L126.39 298.795L125.04 299.106L124.909 298.706L125.384 298.07L125.828 296.764L125.265 296.794L124.495 295.797L123.843 295.543L123.325 294.685L122.584 294.349L122.022 293.584L121.311 293.884L120.762 295.679L119.814 296.066L120.14 295.604L118.629 294.483L117.326 293.899L116.748 293.149L115.697 292.214L116.63 291.974L117.208 289.401L115.297 287.281L116.289 284.84L114.853 284.854L116.378 282.751L115.119 281.148L114.156 278.957L117.192 277.461L119.665 277.714L121.814 279.945L122.258 281.74Z" fill="#F0F0F0"/>
<path d="M94.249 275.53L97.5224 275.974L99.5222 274.671L102.988 274.528L103.744 273.554L104.41 273.618L105.18 275.561L102.025 277.082L101.639 279.381L100.263 279.961L100.277 281.538L98.7223 281.429L97.3739 280.508L96.6489 281.46L93.8872 281.268L94.7691 280.757L93.8208 278.344L94.249 275.53Z" fill="#F0F0F0"/>
<path d="M114.248 257.886L114.471 258.253L116.101 257.426L118.099 259.579L120.441 258.28L122.312 258.903L125.165 258.044L128.93 260.373L127.832 261.939L127.058 264.349L126.213 264.957L121.969 263.146L120.67 263.511L119.74 264.913L117.88 265.653L117.451 265.273L115.521 266.193L113.947 266.369L113.627 267.554L110.302 268.275L108.84 267.634L106.824 266.123L106.429 264.063L106.747 263.307L107.31 261.99L109.065 262.09L110.418 261.47L110.525 260.91L111.284 260.625L111.543 259.25L112.453 258.987L113.066 257.893L114.248 257.886Z" fill="#F0F0F0"/>
<path d="M193.264 343.494L185.503 348.497L181.088 346.644L181.013 346.611L181.55 345.898L181.489 343.971L182.462 341.381L184.623 339.587L183.974 337.712L182.192 337.467L181.822 333.781L182.791 331.785L183.853 330.717L184.914 329.647L185.129 326.906L186.426 327.865L190.789 326.494L192.898 327.422L196.157 327.407L200.718 325.555L202.854 325.639L207.361 324.868L205.33 327.95L203.16 329.161L203.535 332.724L202.037 338.548L193.264 343.494Z" fill="#F0F0F0"/>
<path d="M185.817 303.924L191.502 305.952L196.118 305.145L199.529 305.612L204.209 302.87L208.431 302.62L212.248 305.202L212.921 307.04L212.539 309.568L215.486 310.851L217.047 312.353L214.333 313.812L215.57 319.624L214.794 321.178L216.962 325.167L215.062 326.002L213.67 324.741L209.061 324.101L207.359 324.871L202.852 325.64L200.717 325.557L196.156 327.408L192.895 327.424L190.787 326.497L186.424 327.866L185.127 326.909L184.913 329.648L183.851 330.718L182.79 331.785L181.333 329.572L182.834 327.729L180.417 328.147L177.103 327.015L174.378 329.841L168.364 330.39L165.155 327.76L160.884 327.595L159.971 329.63L157.232 330.211L153.401 327.6L149.074 327.689L146.727 322.765L143.832 319.99L145.76 316.063L143.249 313.628L147.644 308.704L153.747 308.496L155.412 304.53L162.965 305.224L167.729 301.81L172.347 300.31L178.903 300.197L185.817 303.924ZM147.296 307.298L143.989 310.091L142.743 307.676L142.798 306.601L143.739 306.016L144.966 302.73L143.035 301.331L147.072 299.659L150.484 300.372L150.954 302.409L154.413 304.111L153.692 305.395L148.985 305.684L147.296 307.298Z" fill="#F0F0F0"/>
<path d="M522.12 384.014L519.734 390.91L518.035 394.405L515.946 390.807L515.496 387.628L517.828 383.391L520.999 380.101L522.808 381.398L522.12 384.014Z" fill="#F0F0F0"/>
<path d="M165.499 241.588L166.979 241.848L167.981 240.383L169.183 240.706L173.293 240.082L175.825 243.721L174.835 245.012L175.163 246.979L178.324 247.284L179.733 250.008L179.646 251.234L184.679 253.414L187.721 252.434L190.166 255.322L192.482 255.257L198.324 257.247L198.37 259.032L196.761 262.188L197.636 265.477L197.012 267.448L193.178 267.881L191.136 269.519L191.01 272.108L187.847 272.572L185.209 274.44L181.499 274.744L178.086 276.883L176.215 278.338L178.318 280.416L180.257 281.777L184.299 281.438L183.525 283.442L179.187 284.41L173.807 287.621L171.603 286.496L172.477 283.88L168.147 282.24L168.847 281.162L173.318 278.85L172.762 277.697L172.123 278.277L171.493 277.981L165.333 276.538L165.061 274.398L161.389 275.106L159.918 278.255L156.849 282.433L155.051 281.467L153.19 282.372L151.422 281.336L152.42 280.724L153.111 278.781L154.196 276.963L153.917 275.94L154.745 275.482L155.135 276.275L157.47 276.443L158.52 276.019L157.781 275.438L158.06 274.58L156.677 273.113L156.104 270.686L154.661 269.731L154.945 267.742L153.155 266.154L151.525 265.932L148.604 264.082L145.971 264.671L145.025 265.546L143.353 265.545L142.355 266.928L139.431 267.495L138.078 268.398L136.238 266.959L133.697 266.938L131.246 266.282L129.535 267.547L129.258 265.964L127.059 264.349L127.832 261.939L128.93 260.373L129.796 260.724L128.774 258.003L132.373 252.902L134.339 252.18L134.763 250.435L132.77 244.935L134.665 244.688L136.836 242.957L139.907 242.814L143.91 243.316L148.332 244.848L151.453 244.975L152.944 245.892L154.43 244.785L155.468 246.269L159.045 245.966L160.621 246.577L160.876 243.376L162.097 241.97L165.499 241.588Z" fill="#F0F0F0"/>
<path d="M467.72 396.179L462.429 399.793L459.127 403.759L458.257 406.657L461.287 411.036L464.993 416.428L468.588 418.963L470.997 422.248L472.813 429.771L472.277 436.868L468.973 439.512L464.434 442.092L461.202 445.424L456.261 449.136L454.821 446.58L455.934 443.877L452.995 441.604L456.425 439.99L460.584 439.699L458.845 437.266L465.506 434.17L465.993 429.328L465.075 426.622L465.795 422.552L464.798 419.664L461.8 416.811L459.301 413.182L456.008 408.284L451.259 405.794L452.397 404.292L454.93 403.195L453.393 399.531L448.514 399.499L446.735 395.659L444.42 392.301L446.547 391.26L449.707 391.282L453.559 390.788L456.937 388.506L458.847 390.114L462.47 390.894L461.844 393.352L463.731 395.079L467.72 396.179Z" fill="#F0F0F0"/>
<path d="M249.996 416.619L247.131 417.723L246.363 419.543L246.269 420.938L242.324 422.662L235.992 424.565L232.443 427.432L230.699 427.656L229.511 427.415L227.194 429.099L224.668 429.877L221.341 430.088L220.341 430.318L219.474 431.385L218.436 431.681L217.822 432.708L215.86 432.619L214.594 433.166L211.852 432.961L210.82 430.601L210.934 428.388L210.286 427.191L209.512 424.183L208.373 422.507L209.165 422.309L208.758 420.442L209.239 419.652L209.064 417.864L210.804 416.554L210.398 414.818L211.447 412.79L213.075 413.864L214.149 413.491L218.722 413.396L219.449 413.809L223.279 414.222L224.798 414.015L225.789 415.389L227.639 414.702L230.479 410.362L234.177 408.495L245.604 406.899L248.702 413.741L249.996 416.619Z" fill="#F0F0F0"/>
<path d="M127.444 135.58L123.602 142.209L124.221 147.885L117.917 155.148L110.264 162.693L107.379 174.582L110.2 180.33L113.989 184.768L110.349 193.567L106.227 195.355L104.716 207.846L102.465 214.571L97.6581 213.885L95.4151 219.467L90.8274 219.786L89.5681 213.129L86.251 204.916L83.2363 194.315L84.9832 189.87L88.2806 184.482L89.5922 174.975L87.0595 170.766L86.8163 159.397L89.3886 151.049L93.3206 151.203L94.6986 147.594L93.2555 144.439L99.4093 131.012L103.372 119.894L105.99 112.483L109.795 112.519L110.843 106.559L118.311 108.289L118.894 101.106L121.352 100.649L126.633 106.023L132.819 113.306L132.924 129.022L134.261 132.838L127.444 135.58Z" fill="#F0F0F0"/>
<path d="M209.064 417.864L208.549 416.111L207.354 414.87L207.048 413.225L205.002 411.744L202.89 408.266L201.772 404.87L199.032 401.988L197.264 401.298L194.639 397.281L194.181 394.336L194.35 391.812L192.077 387.06L190.218 385.378L188.079 384.485L186.775 382.002L186.992 381.019L185.891 378.758L184.733 377.781L183.186 374.514L180.773 370.948L178.752 367.889L176.779 367.911L177.395 365.453L177.57 363.878L178.062 362.076L182.472 362.794L184.185 361.404L185.133 359.768L188.156 359.139L188.809 357.611L190.119 356.836L186.169 352.234L194.106 349.907L194.861 349.205L199.634 350.466L205.539 353.705L216.713 362.879L224.081 363.239L227.611 363.675L228.598 365.817L231.4 365.701L232.952 369.556L234.901 370.572L235.581 372.129L238.282 373.987L238.522 375.804L238.128 377.265L238.628 378.737L239.767 379.959L240.296 381.388L240.888 382.453L242.085 383.313L243.185 383.005L243.937 384.659L244.088 385.657L245.607 390.01L257.519 392.164L258.318 391.262L260.134 394.279L257.492 402.72L245.605 406.899L234.178 408.495L230.479 410.362L227.64 414.702L225.789 415.389L224.799 414.015L223.279 414.222L219.449 413.809L218.723 413.396L214.149 413.491L213.075 413.864L211.447 412.79L210.398 414.818L210.804 416.554L209.064 417.864Z" fill="#F0F0F0"/>
<path d="M219.53 331.024L222.129 332.485L222.429 335.312L220.434 336.972L219.516 340.701L222.26 345.197L227.115 347.768L229.155 351.305L228.506 354.649L229.771 354.648L229.811 357.091L232.003 359.49L229.652 359.267L226.988 358.886L224.081 363.239L216.713 362.879L205.539 353.705L199.634 350.466L194.861 349.205L193.264 343.494L202.037 338.548L203.535 332.724L203.16 329.161L205.33 327.95L207.361 324.868L209.063 324.098L213.672 324.738L215.064 325.999L216.963 325.164L219.53 331.024Z" fill="#F0F0F0"/>
<path d="M253.218 325.023L256.701 324.063L259.519 321.212L262.169 321.358L263.909 320.424L266.727 320.886L271.109 323.417L274.274 323.96L278.802 328.334L281.756 328.511L282.104 332.618L280.489 338.62L279.4 342.084L281.126 342.784L279.43 345.366L280.727 349.103L281.038 352.05L284.04 352.83L284.365 355.793L280.771 359.934L282.731 362.317L284.327 365.039L288.116 367.012L288.225 370.937L290.122 371.655L290.448 373.693L284.733 375.967L283.24 381.048L275.785 379.732L271.464 378.728L266.992 378.16L265.301 372.767L263.404 371.981L260.36 372.772L256.363 374.908L251.519 373.445L247.519 370.039L243.705 368.771L241.057 364.521L238.133 358.482L236.001 359.221L233.482 357.71L232.002 359.49L229.81 357.091L229.771 354.648L228.506 354.649L229.154 351.305L227.115 347.768L222.26 345.197L219.515 340.701L220.434 336.972L222.428 335.312L222.129 332.485L219.529 331.024L216.963 325.162L214.795 321.175L215.571 319.621L214.334 313.809L217.048 312.35L217.675 314.28L219.678 316.627L222.396 317.301L223.83 317.152L228.504 313.398L229.99 313.02L231.161 314.52L229.795 317.034L232.267 319.676L233.252 319.424L234.505 323.116L238.263 324.152L241.017 326.634L246.65 327.485L252.839 326.179L253.218 325.023Z" fill="#F0F0F0"/>
<path d="M282.104 332.618L281.756 328.511L278.802 328.334L274.274 323.96L271.11 323.417L266.727 320.886L263.909 320.424L262.169 321.358L259.519 321.212L256.701 324.063L253.218 325.023L252.482 321.502L253.057 316.233L249.967 314.51L250.983 311.001L248.353 310.701L249.23 306.328L252.968 307.607L256.449 305.938L253.563 302.788L252.426 299.756L249.237 301.112L248.832 304.974L247.594 301.561L249.345 299.794L253.844 298.685L256.522 300.177L259.295 304.321L261.329 304.064L265.8 303.992L265.149 301.335L268.534 299.505L271.873 296.394L277.212 299.223L277.636 303.452L279.153 304.528L283.437 304.286L284.767 305.239L286.716 310.597L291.247 314.14L293.832 316.535L297.976 319.01L303.248 321.158L303.139 324.21L301.945 324.056L300.075 322.726L299.453 324.495L296.113 325.454L295.322 329.39L293.089 330.877L289.961 331.61L289.134 333.811L286.145 334.455L282.104 332.618Z" fill="#F0F0F0"/>
<path d="M303.139 324.21L303.248 321.158L297.976 319.01L293.832 316.535L291.247 314.14L286.716 310.597L284.767 305.238L283.437 304.286L279.153 304.528L277.637 303.452L277.213 299.223L271.873 296.394L268.535 299.505L265.15 301.335L265.8 303.992L261.329 304.064L261.172 284.098L271.374 280.781L272.115 281.27L278.257 285.279L281.499 287.377L285.284 292.321L289.931 291.528L296.728 291.101L301.471 295.068L301.176 300.44L303.106 300.477L303.913 304.8L308.952 304.97L310.039 307.445L311.514 307.411L313.249 303.667L318.475 299.979L320.748 298.994L321.925 299.519L318.598 302.952L321.524 304.932L324.346 303.622L329.043 306.383L323.967 310.122L320.953 309.613L319.317 309.747L318.751 308.307L319.576 305.891L314.278 307.104L313.017 310.43L311.134 313.269L307.826 313.029L306.798 315.277L309.705 316.489L310.562 320.245L308.334 325.29L305.345 324.242L303.139 324.21Z" fill="#F0F0F0"/>
<mask id="path-72-inside-1" fill="white">
<path d="M320.748 298.994L318.475 299.979L313.248 303.667L311.514 307.411L310.039 307.445L308.952 304.97L303.913 304.8L303.106 300.477L301.176 300.44L301.471 295.068L296.728 291.101L289.931 291.528L285.284 292.32L281.499 287.377L278.257 285.279L272.114 281.27L271.374 280.78L261.172 284.098L261.329 304.064L259.295 304.321L256.522 300.177L253.844 298.685L249.345 299.794L247.594 301.561L247.372 300.268L248.346 298.045L247.59 296.176L242.998 294.337L241.209 289.441L239.021 288.049L238.889 286.246L242.744 286.773L242.896 282.698L246.266 281.785L249.728 282.625L250.442 277.103L249.735 273.55L245.77 273.83L242.4 272.418L237.813 274.957L234.115 276.16L232.103 275.233L232.505 272.262L229.98 268.361L227.039 268.525L223.675 264.516L225.962 259.972L224.804 258.737L227.967 251.995L232.042 255.573L232.535 251.061L240.715 244.207L246.906 244.042L255.64 248.426L260.333 250.957L264.537 248.317L270.82 248.191L275.888 251.431L277.04 249.579L282.606 249.849L283.599 246.873L277.177 242.496L280.98 239.354L280.238 237.582L284.043 235.88L281.182 231.346L282.999 229.059L297.827 226.709L299.762 225.027L309.678 222.495L313.241 219.624L320.363 221.119L321.611 228.203L325.748 226.556L330.838 228.861L330.51 232.512L334.31 232.133L344.242 225.781L342.792 227.907L347.849 233.079L356.703 249.44L358.815 246.142L364.275 249.767L369.969 248.156L372.157 249.285L374.063 252.884L376.834 254.082L378.521 256.687L383.626 255.869L385.728 259.592L382.712 263.593L379.42 264.15L379.232 270.066L377.027 272.695L369.166 270.782L366.307 281.046L364.279 282.298L356.428 284.534L359.995 294.08L357.276 295.486L357.592 298.546L355.151 297.762L353.163 295.833L347.283 295.269L340.713 295.12L339.272 295.715L333.629 293.441L331.379 294.563L330.764 297.739L324.243 295.889L321.635 296.648L320.748 298.994Z"/>
</mask>
<path d="M320.748 298.994L318.475 299.979L313.248 303.667L311.514 307.411L310.039 307.445L308.952 304.97L303.913 304.8L303.106 300.477L301.176 300.44L301.471 295.068L296.728 291.101L289.931 291.528L285.284 292.32L281.499 287.377L278.257 285.279L272.114 281.27L271.374 280.78L261.172 284.098L261.329 304.064L259.295 304.321L256.522 300.177L253.844 298.685L249.345 299.794L247.594 301.561L247.372 300.268L248.346 298.045L247.59 296.176L242.998 294.337L241.209 289.441L239.021 288.049L238.889 286.246L242.744 286.773L242.896 282.698L246.266 281.785L249.728 282.625L250.442 277.103L249.735 273.55L245.77 273.83L242.4 272.418L237.813 274.957L234.115 276.16L232.103 275.233L232.505 272.262L229.98 268.361L227.039 268.525L223.675 264.516L225.962 259.972L224.804 258.737L227.967 251.995L232.042 255.573L232.535 251.061L240.715 244.207L246.906 244.042L255.64 248.426L260.333 250.957L264.537 248.317L270.82 248.191L275.888 251.431L277.04 249.579L282.606 249.849L283.599 246.873L277.177 242.496L280.98 239.354L280.238 237.582L284.043 235.88L281.182 231.346L282.999 229.059L297.827 226.709L299.762 225.027L309.678 222.495L313.241 219.624L320.363 221.119L321.611 228.203L325.748 226.556L330.838 228.861L330.51 232.512L334.31 232.133L344.242 225.781L342.792 227.907L347.849 233.079L356.703 249.44L358.815 246.142L364.275 249.767L369.969 248.156L372.157 249.285L374.063 252.884L376.834 254.082L378.521 256.687L383.626 255.869L385.728 259.592L382.712 263.593L379.42 264.15L379.232 270.066L377.027 272.695L369.166 270.782L366.307 281.046L364.279 282.298L356.428 284.534L359.995 294.08L357.276 295.486L357.592 298.546L355.151 297.762L353.163 295.833L347.283 295.269L340.713 295.12L339.272 295.715L333.629 293.441L331.379 294.563L330.764 297.739L324.243 295.889L321.635 296.648L320.748 298.994Z" fill="#8AE0EC" stroke="white" mask="url(#path-72-inside-1)"/>
<path d="M456.5 426.335L457.79 424.502L457.967 421.05L454.759 417.478L454.512 413.415L451.497 410.054L448.501 409.77L447.702 411.211L445.381 411.331L444.194 410.601L440.018 413.068L439.924 409.357L440.898 404.97L438.221 404.778L437.994 402.262L436.279 400.966L437.123 399.417L440.495 396.669L440.851 397.663L442.964 397.777L442.367 392.925L444.42 392.301L446.735 395.659L448.515 399.499L453.394 399.531L454.93 403.195L452.397 404.292L451.259 405.794L456.008 408.284L459.301 413.181L461.8 416.811L464.798 419.664L465.796 422.552L465.075 426.622L461.564 425.126L459.771 427.927L456.5 426.335Z" fill="#F0F0F0"/>
<mask id="path-74-inside-2" fill="white">
<path d="M792.871 133.128L788.942 137.33L782.446 138.317L782.349 147.451L780.761 149.355L777.051 149.082L774.029 145.882L768.761 143.173L767.874 139.088L763.849 137.531L759.343 138.767L757.191 135.419L758.052 131.812L753.306 134.123L755.094 138.637L752.845 142.641L752.815 142.692L747.722 146.77L742.585 146.094L746.16 150.959L748.519 158.31L750.349 160.667L750.808 164.246L749.785 166.51L742.399 164.649L731.322 171.024L727.799 171.997L721.736 177.786L715.983 182.739L714.528 186.348L708.859 180.836L698.533 187.081L696.731 184.144L692.913 187.528L687.613 186.45L686.337 191.581L681.582 198.956L681.725 201.977L686.238 203.636L685.707 214.177L682.028 214.439L680.33 220.31L681.98 223.284L675.05 226.771L673.675 234.41L667.766 236.014L666.578 242.605L660.866 248.517L659.401 244.156L657.704 234.697L655.494 219.649L657.399 209.821L660.741 205.48L660.948 202.03L667.106 200.362L674.185 190.779L681.006 182.684L688.129 176.225L691.315 164.401L686.501 165.123L684.119 172.08L674.069 181.07L670.823 170.982L660.593 173.807L650.674 187.319L653.946 192.092L645.101 194.097L638.974 194.884L639.261 189.307L633.102 188.121L628.192 191.94L616.075 190.61L603.04 192.9L590.202 207.5L575.016 224.145L581.259 225.007L583.208 229.248L587.058 230.74L589.593 227.379L593.941 227.818L599.662 235.155L599.796 240.701L596.7 247.078L596.365 254.521L594.577 264.199L588.604 272.698L587.277 276.679L581.898 283.268L576.56 289.668L574 292.894L568.72 296.067L566.219 296.137L563.731 293.511L558.411 297.457L557.792 299.235L557.236 298.3L557.212 295.574L559.236 295.428L559.807 288.993L558.763 284.247L562.165 282.27L566.973 283.264L569.638 277.769L570.997 271.462L572.536 269.327L574.619 264.011L568.07 265.762L564.634 268.09L558.611 268.083L557.007 262.507L552.313 258.218L545.416 256.269L543.951 250.214L542.57 246.354L541.084 243.617L538.635 237.1L535.155 234.681L529.225 232.711L523.97 232.891L519.046 234.085L515.774 237.354L517.948 238.902L517.997 242.466L515.793 244.515L512.215 251.194L512.252 253.92L506.667 257.791L501.911 255.484L497.182 255.995L495.107 253.935L492.73 253.268L486.926 257.592L481.71 258.598L478.068 260.099L473.076 259.114L469.401 259.178L466.995 256.064L463.114 253.107L459.143 252.292L454.13 253.102L450.384 254.245L444.755 251.643L444 246.948L439.34 245.321L435.743 244.576L431.304 241.932L427.2 248.517L428.81 252.191L424.957 256.479L419.227 254.939L415.271 254.718L412.623 251.832L408.489 251.74L405.043 249.827L399.015 252.754L391.453 258.038L387.276 259.09L385.724 259.587L383.622 255.865L378.517 256.683L376.831 254.078L374.061 252.88L372.153 249.283L369.965 248.153L364.271 249.765L358.812 246.139L356.701 249.437L347.845 233.076L342.789 227.904L344.238 225.779L334.308 232.13L330.507 232.509L330.835 228.858L325.744 226.553L321.607 228.201L320.359 221.118L313.237 219.621L309.674 222.494L299.758 225.025L297.823 226.706L282.995 229.056L281.178 231.343L284.039 235.877L280.234 237.579L280.976 239.351L277.173 242.493L283.595 246.871L282.603 249.848L277.037 249.578L275.887 251.43L270.819 248.189L264.536 248.315L260.33 250.955L255.639 248.423L246.903 244.039L240.713 244.205L232.532 251.058L232.039 255.571L227.964 251.992L224.803 258.734L225.96 259.969L223.674 264.513L227.037 268.523L229.978 268.359L232.504 272.259L232.103 275.23L234.115 276.157L232.309 279.537L228.468 280.47L224.529 286.247L228.13 291.47L227.74 295.125L232.067 301.422L229.701 303.551L229.022 304.887L227.268 304.529L224.544 301.326L223.43 301.148L220.939 299.917L219.726 297.727L216.03 296.604L213.627 297.448L212.933 296.45L207.537 293.862L201.703 292.983L198.353 292.053L197.87 292.696L192.817 288.069L188.296 285.982L184.873 282.704L187.758 281.805L191.046 277.065L188.83 274.796L194.67 272.44L194.566 271.17L191.008 272.107L191.133 269.518L193.175 267.88L197.009 267.447L197.633 265.475L196.756 262.187L198.366 259.031L198.32 257.245L192.478 255.254L190.162 255.32L187.717 252.433L184.676 253.412L179.643 251.233L179.73 250.006L178.321 247.284L175.16 246.979L174.832 245.012L175.822 243.721L173.289 240.082L169.181 240.706L167.976 240.383L166.976 241.848L165.496 241.588L164.522 237.437L163.592 235.261L164.355 234.646L167.552 234.875L169.094 233.431L167.952 231.66L165.28 230.484L165.519 229.272L163.906 228.043L161.421 223.587L162.271 221.729L161.883 218.467L158.009 216.795L155.93 217.634L155.368 215.887L151.196 214.112L149.922 209.887L149.584 206.365L147.675 204.677L149.372 202.333L148.197 195.32L151.016 190.892L150.42 189.536L154.924 185.196L150.772 181.402L159.256 170.937L162.936 166.056L164.427 161.669L158.562 155.654L160.182 149.796L156.614 142.935L159.283 134.789L154.674 123.543L158.33 115.801L152.261 108.748L152.839 101.11L156.041 100.087L162.784 95.5812L166.873 91.6054L173.382 98.4743L184.234 101.126L199.207 113.346L202.249 118.304L202.51 125.082L198.11 130.304L191.64 132.913L173.949 125.404L171.039 126.676L177.499 133.88L177.752 138.338L178.011 147.882L183.113 150.661L186.21 153.003L186.722 148.611L184.334 144.653L186.857 141.112L196.437 146.905L199.774 144.654L197.107 137.761L206.343 128.232L210.001 128.803L213.701 132.238L216.009 125.438L212.705 119.385L214.645 113.158L211.732 106.526L222.817 109.978L225.081 115.89L220.064 117.173L220.091 122.88L223.21 126.326L229.333 124.148L230.302 117.631L238.58 112.649L252.41 103.401L255.397 103.941L251.491 110.499L256.407 111.609L259.246 107.956L266.673 107.658L272.558 103.145L277.074 109.676L281.577 102.487L277.425 96.0179L279.485 92.2542L291.191 95.707L296.676 99.2234L311.037 111.659L313.687 106.041L309.659 100.231L309.543 97.8609L304.767 96.7557L306.074 91.3468L303.954 82.1728L303.834 78.3044L311.148 67.0118L313.749 55.1128L316.696 52.4585L327.187 56.0117L328.014 63.3371L324.257 73.6305L326.722 77.5582L327.997 85.9506L327.097 101.601L331.468 108.286L329.768 115.364L322.006 129.777L326.536 131.224L328.111 127.671L332.472 125.106L333.523 120.084L336.953 115.153L334.644 109.132L336.494 101.948L332.161 101.038L331.208 94.7939L334.37 83.0942L329.222 73.1542L336.314 64.6147L335.399 55.2598L337.374 54.9545L339.456 62.2884L337.895 74.5378L342.135 76.7879L340.328 67.7806L346.96 62.7223L355.184 62.0326L362.507 69.3537L358.983 58.5812L358.589 44.0491L365.48 41.1927L375.012 41.8203L383.598 39.9532L380.378 32.348L384.965 22.432L389.517 22.008L397.223 14.2162L407.686 12.0764L409.009 7.62009L419.414 6.09085L422.656 9.77403L431.55 0.958982L438.83 1.24025L439.921 -6.16288L443.709 -13.7017L453.064 -21.2094L459.861 -15.262L454.465 -10.8368L463.442 -8.12743L464.512 0.400714L468.133 -3.75877L479.718 -3.52839L488.651 4.72979L491.832 10.8793L490.846 19.153L486.461 23.7351L476.048 32.0978L473.071 36.4496L477.986 38.4749L483.848 42.0817L487.414 39.3822L489.437 48.4178L491.176 44.801L497.512 42.575L510.227 44.9014L511.194 51.3688L527.761 53.3899L527.987 42.828L536.396 45.29L542.724 45.2137L549.122 52.4755L550.947 61.0093L548.602 66.4309L553.578 76.2989L559.811 81.2357L563.634 68.264L569.992 73.9117L576.745 70.5536L584.415 74.3923L587.333 70.8942L593.816 72.6496L590.956 60.7803L596.188 55.0322L631.978 63.5985L635.352 71.167L645.726 80.57L661.728 78.2761L669.617 80.2746L672.916 85.2185L672.434 93.7212L677.316 96.9521L682.62 94.6328L689.648 94.3346L697.129 96.5606L704.64 95.307L711.543 105.192L716.454 101.683L713.249 94.5113L715.014 89.3978L727.656 92.6287L735.899 91.9418L747.296 97.3733L752.843 102.235L762.552 110.515L772.943 120.89L772.602 127.161L775.275 129.627L774.356 122.354L785.113 123.864L792.871 133.128ZM612.775 261.032L608.788 250.172L607.153 243.799L607.255 237.444L605.882 231.08L604.852 226.628L603.088 227.579L604.661 230.696L600.998 233.757L600.647 242.655L602.969 248.89L602.795 257.161L601.878 261.736L602.33 268.148L601.888 273.823L602.623 278.628L605.221 274.199L608.224 277.654L608.334 273.646L604.473 267.669L606.911 259.038L612.775 261.032ZM127.97 222.186L123.821 220.976L118.352 223.213L117.449 226.22L122.329 226.99L129.617 226.888L129.299 225.153L129.721 223.277L127.97 222.186ZM752.843 80.6845L758.019 79.9496L762.102 77.031L762.441 75.3519L756.709 71.7974L753.351 71.7705L752.843 72.2949L747.792 77.4465L748.499 81.2993L752.843 80.6845ZM597.548 42.3983L593.788 47.9316L594.482 48.6637L602.603 50.1958L608.611 50.0996L608.132 46.4688L602.503 41.0839L597.548 42.3983ZM632.279 28.932L636.86 22.9281L626.916 18.8647L619.528 16.4889L618.58 21.5557L625.945 27.5864L632.279 28.932ZM596.765 26.5378L611.372 26.9561L614.488 15.4444L600.164 6.86395L589.699 6.14031L584.471 9.22142L582.342 20.1777L590.193 30.0895L596.765 26.5378ZM247.5 63.2099L243.448 65.9772L244.027 72.8065L251.2 76.125L252.251 81.5212L265.199 83.0787L267.54 82.0286L259.96 71.9853L259.154 61.3626L265.366 48.4404L271.272 34.5627L283.582 20.1918L295.685 12.6474L309.727 4.53475L312.389 -0.703107L309.635 -7.52534L301.922 -5.25834L295.135 1.09043L281.946 4.23088L268.862 14.7024L259.999 22.969L261.072 29.8521L251.584 42.6132L255.228 44.3374L247.367 56.0272L247.5 63.2099ZM455.932 -32.8214L457.109 -40.9058L447.064 -52.6973L444.088 -54.0895L440.832 -51.6924L433.592 -25.3985L455.932 -32.8214ZM223.819 -74.2509L228.111 -68.7727L232.743 -72.5789L233.296 -76.4218L236.859 -78.2196L242.178 -81.3784L243.712 -85.087L237.834 -90.5242L234.098 -86.4212L231.823 -80.5911L231.013 -87.1618L224.992 -86.8636L217.255 -82.4087L226.075 -81.6724L223.819 -74.2509ZM409.319 -55.8123L415.896 -47.7139L426.934 -41.775L435.581 -44.3233L436.558 -63.5773L427.433 -86.2474L419.733 -99L411.161 -93.1926L400.872 -76.467L406.278 -71.8454L409.319 -55.8123Z"/>
</mask>
<path d="M792.871 133.128L788.942 137.33L782.446 138.317L782.349 147.451L780.761 149.355L777.051 149.082L774.029 145.882L768.761 143.173L767.874 139.088L763.849 137.531L759.343 138.767L757.191 135.419L758.052 131.812L753.306 134.123L755.094 138.637L752.845 142.641L752.815 142.692L747.722 146.77L742.585 146.094L746.16 150.959L748.519 158.31L750.349 160.667L750.808 164.246L749.785 166.51L742.399 164.649L731.322 171.024L727.799 171.997L721.736 177.786L715.983 182.739L714.528 186.348L708.859 180.836L698.533 187.081L696.731 184.144L692.913 187.528L687.613 186.45L686.337 191.581L681.582 198.956L681.725 201.977L686.238 203.636L685.707 214.177L682.028 214.439L680.33 220.31L681.98 223.284L675.05 226.771L673.675 234.41L667.766 236.014L666.578 242.605L660.866 248.517L659.401 244.156L657.704 234.697L655.494 219.649L657.399 209.821L660.741 205.48L660.948 202.03L667.106 200.362L674.185 190.779L681.006 182.684L688.129 176.225L691.315 164.401L686.501 165.123L684.119 172.08L674.069 181.07L670.823 170.982L660.593 173.807L650.674 187.319L653.946 192.092L645.101 194.097L638.974 194.884L639.261 189.307L633.102 188.121L628.192 191.94L616.075 190.61L603.04 192.9L590.202 207.5L575.016 224.145L581.259 225.007L583.208 229.248L587.058 230.74L589.593 227.379L593.941 227.818L599.662 235.155L599.796 240.701L596.7 247.078L596.365 254.521L594.577 264.199L588.604 272.698L587.277 276.679L581.898 283.268L576.56 289.668L574 292.894L568.72 296.067L566.219 296.137L563.731 293.511L558.411 297.457L557.792 299.235L557.236 298.3L557.212 295.574L559.236 295.428L559.807 288.993L558.763 284.247L562.165 282.27L566.973 283.264L569.638 277.769L570.997 271.462L572.536 269.327L574.619 264.011L568.07 265.762L564.634 268.09L558.611 268.083L557.007 262.507L552.313 258.218L545.416 256.269L543.951 250.214L542.57 246.354L541.084 243.617L538.635 237.1L535.155 234.681L529.225 232.711L523.97 232.891L519.046 234.085L515.774 237.354L517.948 238.902L517.997 242.466L515.793 244.515L512.215 251.194L512.252 253.92L506.667 257.791L501.911 255.484L497.182 255.995L495.107 253.935L492.73 253.268L486.926 257.592L481.71 258.598L478.068 260.099L473.076 259.114L469.401 259.178L466.995 256.064L463.114 253.107L459.143 252.292L454.13 253.102L450.384 254.245L444.755 251.643L444 246.948L439.34 245.321L435.743 244.576L431.304 241.932L427.2 248.517L428.81 252.191L424.957 256.479L419.227 254.939L415.271 254.718L412.623 251.832L408.489 251.74L405.043 249.827L399.015 252.754L391.453 258.038L387.276 259.09L385.724 259.587L383.622 255.865L378.517 256.683L376.831 254.078L374.061 252.88L372.153 249.283L369.965 248.153L364.271 249.765L358.812 246.139L356.701 249.437L347.845 233.076L342.789 227.904L344.238 225.779L334.308 232.13L330.507 232.509L330.835 228.858L325.744 226.553L321.607 228.201L320.359 221.118L313.237 219.621L309.674 222.494L299.758 225.025L297.823 226.706L282.995 229.056L281.178 231.343L284.039 235.877L280.234 237.579L280.976 239.351L277.173 242.493L283.595 246.871L282.603 249.848L277.037 249.578L275.887 251.43L270.819 248.189L264.536 248.315L260.33 250.955L255.639 248.423L246.903 244.039L240.713 244.205L232.532 251.058L232.039 255.571L227.964 251.992L224.803 258.734L225.96 259.969L223.674 264.513L227.037 268.523L229.978 268.359L232.504 272.259L232.103 275.23L234.115 276.157L232.309 279.537L228.468 280.47L224.529 286.247L228.13 291.47L227.74 295.125L232.067 301.422L229.701 303.551L229.022 304.887L227.268 304.529L224.544 301.326L223.43 301.148L220.939 299.917L219.726 297.727L216.03 296.604L213.627 297.448L212.933 296.45L207.537 293.862L201.703 292.983L198.353 292.053L197.87 292.696L192.817 288.069L188.296 285.982L184.873 282.704L187.758 281.805L191.046 277.065L188.83 274.796L194.67 272.44L194.566 271.17L191.008 272.107L191.133 269.518L193.175 267.88L197.009 267.447L197.633 265.475L196.756 262.187L198.366 259.031L198.32 257.245L192.478 255.254L190.162 255.32L187.717 252.433L184.676 253.412L179.643 251.233L179.73 250.006L178.321 247.284L175.16 246.979L174.832 245.012L175.822 243.721L173.289 240.082L169.181 240.706L167.976 240.383L166.976 241.848L165.496 241.588L164.522 237.437L163.592 235.261L164.355 234.646L167.552 234.875L169.094 233.431L167.952 231.66L165.28 230.484L165.519 229.272L163.906 228.043L161.421 223.587L162.271 221.729L161.883 218.467L158.009 216.795L155.93 217.634L155.368 215.887L151.196 214.112L149.922 209.887L149.584 206.365L147.675 204.677L149.372 202.333L148.197 195.32L151.016 190.892L150.42 189.536L154.924 185.196L150.772 181.402L159.256 170.937L162.936 166.056L164.427 161.669L158.562 155.654L160.182 149.796L156.614 142.935L159.283 134.789L154.674 123.543L158.33 115.801L152.261 108.748L152.839 101.11L156.041 100.087L162.784 95.5812L166.873 91.6054L173.382 98.4743L184.234 101.126L199.207 113.346L202.249 118.304L202.51 125.082L198.11 130.304L191.64 132.913L173.949 125.404L171.039 126.676L177.499 133.88L177.752 138.338L178.011 147.882L183.113 150.661L186.21 153.003L186.722 148.611L184.334 144.653L186.857 141.112L196.437 146.905L199.774 144.654L197.107 137.761L206.343 128.232L210.001 128.803L213.701 132.238L216.009 125.438L212.705 119.385L214.645 113.158L211.732 106.526L222.817 109.978L225.081 115.89L220.064 117.173L220.091 122.88L223.21 126.326L229.333 124.148L230.302 117.631L238.58 112.649L252.41 103.401L255.397 103.941L251.491 110.499L256.407 111.609L259.246 107.956L266.673 107.658L272.558 103.145L277.074 109.676L281.577 102.487L277.425 96.0179L279.485 92.2542L291.191 95.707L296.676 99.2234L311.037 111.659L313.687 106.041L309.659 100.231L309.543 97.8609L304.767 96.7557L306.074 91.3468L303.954 82.1728L303.834 78.3044L311.148 67.0118L313.749 55.1128L316.696 52.4585L327.187 56.0117L328.014 63.3371L324.257 73.6305L326.722 77.5582L327.997 85.9506L327.097 101.601L331.468 108.286L329.768 115.364L322.006 129.777L326.536 131.224L328.111 127.671L332.472 125.106L333.523 120.084L336.953 115.153L334.644 109.132L336.494 101.948L332.161 101.038L331.208 94.7939L334.37 83.0942L329.222 73.1542L336.314 64.6147L335.399 55.2598L337.374 54.9545L339.456 62.2884L337.895 74.5378L342.135 76.7879L340.328 67.7806L346.96 62.7223L355.184 62.0326L362.507 69.3537L358.983 58.5812L358.589 44.0491L365.48 41.1927L375.012 41.8203L383.598 39.9532L380.378 32.348L384.965 22.432L389.517 22.008L397.223 14.2162L407.686 12.0764L409.009 7.62009L419.414 6.09085L422.656 9.77403L431.55 0.958982L438.83 1.24025L439.921 -6.16288L443.709 -13.7017L453.064 -21.2094L459.861 -15.262L454.465 -10.8368L463.442 -8.12743L464.512 0.400714L468.133 -3.75877L479.718 -3.52839L488.651 4.72979L491.832 10.8793L490.846 19.153L486.461 23.7351L476.048 32.0978L473.071 36.4496L477.986 38.4749L483.848 42.0817L487.414 39.3822L489.437 48.4178L491.176 44.801L497.512 42.575L510.227 44.9014L511.194 51.3688L527.761 53.3899L527.987 42.828L536.396 45.29L542.724 45.2137L549.122 52.4755L550.947 61.0093L548.602 66.4309L553.578 76.2989L559.811 81.2357L563.634 68.264L569.992 73.9117L576.745 70.5536L584.415 74.3923L587.333 70.8942L593.816 72.6496L590.956 60.7803L596.188 55.0322L631.978 63.5985L635.352 71.167L645.726 80.57L661.728 78.2761L669.617 80.2746L672.916 85.2185L672.434 93.7212L677.316 96.9521L682.62 94.6328L689.648 94.3346L697.129 96.5606L704.64 95.307L711.543 105.192L716.454 101.683L713.249 94.5113L715.014 89.3978L727.656 92.6287L735.899 91.9418L747.296 97.3733L752.843 102.235L762.552 110.515L772.943 120.89L772.602 127.161L775.275 129.627L774.356 122.354L785.113 123.864L792.871 133.128ZM612.775 261.032L608.788 250.172L607.153 243.799L607.255 237.444L605.882 231.08L604.852 226.628L603.088 227.579L604.661 230.696L600.998 233.757L600.647 242.655L602.969 248.89L602.795 257.161L601.878 261.736L602.33 268.148L601.888 273.823L602.623 278.628L605.221 274.199L608.224 277.654L608.334 273.646L604.473 267.669L606.911 259.038L612.775 261.032ZM127.97 222.186L123.821 220.976L118.352 223.213L117.449 226.22L122.329 226.99L129.617 226.888L129.299 225.153L129.721 223.277L127.97 222.186ZM752.843 80.6845L758.019 79.9496L762.102 77.031L762.441 75.3519L756.709 71.7974L753.351 71.7705L752.843 72.2949L747.792 77.4465L748.499 81.2993L752.843 80.6845ZM597.548 42.3983L593.788 47.9316L594.482 48.6637L602.603 50.1958L608.611 50.0996L608.132 46.4688L602.503 41.0839L597.548 42.3983ZM632.279 28.932L636.86 22.9281L626.916 18.8647L619.528 16.4889L618.58 21.5557L625.945 27.5864L632.279 28.932ZM596.765 26.5378L611.372 26.9561L614.488 15.4444L600.164 6.86395L589.699 6.14031L584.471 9.22142L582.342 20.1777L590.193 30.0895L596.765 26.5378ZM247.5 63.2099L243.448 65.9772L244.027 72.8065L251.2 76.125L252.251 81.5212L265.199 83.0787L267.54 82.0286L259.96 71.9853L259.154 61.3626L265.366 48.4404L271.272 34.5627L283.582 20.1918L295.685 12.6474L309.727 4.53475L312.389 -0.703107L309.635 -7.52534L301.922 -5.25834L295.135 1.09043L281.946 4.23088L268.862 14.7024L259.999 22.969L261.072 29.8521L251.584 42.6132L255.228 44.3374L247.367 56.0272L247.5 63.2099ZM455.932 -32.8214L457.109 -40.9058L447.064 -52.6973L444.088 -54.0895L440.832 -51.6924L433.592 -25.3985L455.932 -32.8214ZM223.819 -74.2509L228.111 -68.7727L232.743 -72.5789L233.296 -76.4218L236.859 -78.2196L242.178 -81.3784L243.712 -85.087L237.834 -90.5242L234.098 -86.4212L231.823 -80.5911L231.013 -87.1618L224.992 -86.8636L217.255 -82.4087L226.075 -81.6724L223.819 -74.2509ZM409.319 -55.8123L415.896 -47.7139L426.934 -41.775L435.581 -44.3233L436.558 -63.5773L427.433 -86.2474L419.733 -99L411.161 -93.1926L400.872 -76.467L406.278 -71.8454L409.319 -55.8123Z" fill="#8AE0EC" stroke="white" mask="url(#path-74-inside-2)"/>
<path d="M387.28 259.094L391.458 258.043L399.019 252.757L405.046 249.831L408.493 251.743L412.627 251.835L415.275 254.723L419.23 254.943L424.96 256.484L428.812 252.197L427.203 248.522L431.307 241.938L435.746 244.582L439.343 245.327L444.003 246.955L444.759 251.649L450.387 254.251L454.134 253.107L459.147 252.297L463.117 253.113L466.998 256.07L469.404 259.183L473.078 259.12L478.07 260.105L481.713 258.604L486.931 257.597L492.734 253.274L495.111 253.941L497.186 255.999L501.914 255.489L499.984 260.078L497.185 266.052L498.205 268.463L500.448 267.717L504.357 268.631L507.403 266.458L510.583 268.342L514.174 272.422L513.74 274.476L510.614 273.825L504.858 274.59L502.069 276.224L499.165 279.986L493.123 282.171L489.174 285.141L485.1 284.01L482.872 283.504L480.79 287.091L482.056 289.21L482.698 291.019L479.923 292.852L477.08 295.751L472.45 297.64L466.511 297.844L460.108 299.697L455.495 302.543L453.74 300.898L448.946 300.902L443.082 297.664L439.171 296.866L433.899 297.612L425.72 296.409L421.351 296.534L419.026 293.327L417.22 288.284L414.772 287.672L409.984 284.212L404.647 283.432L399.938 282.472L398.512 280.029L400.037 273.348L397.303 268.657L391.651 266.445L388.32 263.292L387.28 259.094Z" fill="#F0F0F0"/>
<path d="M476.791 408.238L473.367 410.233L470.117 408.947L470.003 405.364L471.956 403.469L476.285 402.294L478.564 402.395L479.45 403.993L477.708 405.832L476.791 408.238ZM545.42 256.275L552.318 258.224L557.011 262.513L558.615 268.089L564.638 268.096L568.074 265.768L574.623 264.017L572.54 269.332L571.001 271.469L569.642 277.776L566.977 283.271L562.169 282.277L558.767 284.256L559.811 289.001L559.24 295.435L557.216 295.581L557.24 298.307L554.681 295.136L553.106 298.146L546.987 300.443L547.606 303.234L544.18 303.042L542.298 301.386L539.575 305.123L535.208 307.927L531.981 311.244L526.441 312.738L523.524 315.125L519.255 316.511L521.361 314.154L520.531 312.16L523.671 308.691L521.577 305.964L518.123 307.804L513.65 311.399L511.208 314.706L507.321 314.951L505.298 317.32L507.389 320.725L510.631 321.547L510.765 323.784L513.9 325.233L518.342 321.681L521.86 323.623L524.422 323.755L525.065 326.35L519.455 327.726L517.602 330.372L513.747 332.814L511.714 336.196L515.981 338.831L517.538 343.505L519.949 347.81L522.64 351.384L522.575 354.813L520.088 356.067L521.036 358.505L523.368 359.918L522.759 363.605L521.753 367.164L519.538 367.566L516.645 372.381L513.435 378.156L509.755 383.351L504.306 387.334L498.794 390.942L494.329 391.433L491.907 393.327L490.536 391.943L488.294 394.06L482.756 396.186L478.562 396.835L477.21 401.288L475.013 401.534L473.974 398.478L474.913 396.843L469.596 395.488L467.723 396.178L463.733 395.078L461.846 393.351L462.473 390.894L458.85 390.113L456.939 388.504L453.561 390.787L449.709 391.28L446.548 391.258L444.421 392.299L442.368 392.924L442.967 397.776L440.854 397.66L440.498 396.666L440.378 394.914L437.47 396.149L435.755 395.369L432.812 393.775L433.965 390.232L431.457 389.402L430.511 385.443L426.328 386.158L426.804 381.021L430.556 377.374L430.716 373.748L430.599 370.358L428.869 369.298L427.545 366.67L425.225 367.002L420.953 366.332L422.291 364.446L420.434 361.64L417.609 363.542L414.284 362.432L409.717 365.302L406.11 368.63L402.913 369.188L401.177 367.988L399.085 367.879L396.253 366.845L394.112 367.98L391.491 371.288L391.159 367.782L388.743 368.722L384.121 368.285L379.638 367.26L376.422 365.292L373.343 364.405L372.013 362.239L369.787 361.59L365.785 358.631L362.608 357.227L360.966 358.32L355.46 355.118L351.566 352.2L350.455 347.071L353.299 347.7L353.429 345.305L351.853 342.891L352.254 339.013L347.994 333.375L341.477 331.411L340.304 327.65L337.377 325.35L336.672 323.927L336.077 321.084L336.215 319.132L333.808 317.984L332.507 318.491L331.502 313.793L332.63 312.622L332.083 311.42L335.866 308.981L338.605 307.966L342.8 308.662L344.3 305.335L349.384 304.713L350.796 302.624L357.041 299.753L357.598 298.548L357.281 295.488L360.001 294.082L356.433 284.536L364.285 282.3L366.314 281.048L369.172 270.784L377.034 272.696L379.239 270.067L379.429 264.151L382.72 263.593L385.736 259.592L387.288 259.094L388.328 263.292L391.658 266.444L397.31 268.655L400.045 273.346L398.52 280.029L399.946 282.472L404.655 283.431L409.992 284.211L414.781 287.671L417.228 288.283L419.033 293.325L421.36 296.532L425.728 296.408L433.907 297.612L439.178 296.866L443.09 297.664L448.953 300.902L453.748 300.898L455.502 302.543L460.117 299.697L466.518 297.842L472.456 297.639L477.087 295.749L479.93 292.851L482.705 291.017L482.063 289.208L480.797 287.09L482.878 283.503L485.107 284.009L489.181 285.139L493.129 282.17L499.172 279.985L502.076 276.222L504.866 274.589L510.621 273.824L513.749 274.473L514.183 272.419L510.591 268.339L507.411 266.455L504.366 268.629L500.456 267.714L498.213 268.46L497.191 266.049L499.991 260.074L501.921 255.484L506.676 257.791L512.262 253.92L512.225 251.194L515.802 244.515L518.007 242.466L517.958 238.902L515.784 237.354L519.056 234.085L523.98 232.891L529.235 232.711L535.165 234.681L538.645 237.1L541.094 243.617L542.58 246.354L543.961 250.214L545.42 256.275Z" fill="#F0F0F0"/>
<path d="M217.872 312.211L219.046 313.586L220.797 313.574L220.779 314.363L222.397 317.303L219.68 316.629L217.677 314.281L217.048 312.35L217.872 312.211ZM227.269 304.532L229.023 304.889L229.703 303.554L232.069 301.425L234.152 304.202L236.168 307.91L238.015 308.153L239.235 309.549L235.97 309.965L235.281 313.955L234.6 315.74L233.147 316.925L233.253 319.426L232.267 319.677L229.795 317.036L231.162 314.521L229.99 313.02L228.504 313.399L223.831 317.153L223.743 313.625L221.964 312.787L220.282 311.391L221.4 309.748L219.288 307.97L220.085 306.665L218.576 305.76L217.755 304.383L218.726 303.525L221.678 305.035L223.814 305.346L224.353 304.731L222.402 301.88L223.431 301.15L224.544 301.328L227.269 304.532Z" fill="#F0F0F0"/>
<path d="M347.993 333.375L352.253 339.013L351.851 342.89L353.427 345.304L353.297 347.698L350.453 347.069L351.564 352.2L355.458 355.118L360.966 358.32L358.45 360.384L356.912 364.612L360.751 366.311L364.488 368.504L369.657 371.002L375.088 371.575L377.373 373.827L380.436 374.245L385.203 375.273L388.504 375.199L388.957 373.454L388.436 370.64L388.742 368.723L391.159 367.783L391.491 371.29L391.576 372.179L395.179 373.857L397.669 373.165L401.016 373.462L404.248 373.331L404.527 370.61L402.913 369.19L406.11 368.633L409.716 365.303L414.284 362.434L417.609 363.543L420.434 361.641L422.291 364.446L420.953 366.333L425.227 367.002L425.525 368.696L424.135 369.513L424.462 372.245L421.63 371.444L416.499 374.5L416.619 377.014L414.433 380.68L414.231 382.797L412.464 386.362L409.367 385.378L409.213 389.827L408.319 391.284L408.737 393.095L406.782 394.104L404.695 387.321L403.601 387.336L402.954 390.077L400.784 387.856L402.007 385.405L403.78 385.155L405.607 381.489L403.323 380.745L399.646 380.81L395.876 380.212L395.526 377.174L393.634 376.957L390.495 375.059L389.096 378.037L391.956 380.348L389.479 381.969L388.6 383.551L391.038 384.708L390.365 387.307L391.737 390.531L392.355 394.043L391.787 395.592L389.09 395.54L384.206 396.419L384.433 399.596L382.317 402.084L376.615 404.902L372.179 409.801L369.2 412.413L365.251 415.115L365.246 417.006L363.271 418.018L359.701 419.486L357.849 419.704L356.662 422.82L357.486 428.111L357.697 431.469L356.018 435.302L355.999 442.121L353.949 442.315L352.145 445.363L353.351 446.679L349.737 447.809L348.403 450.516L346.813 451.66L343.062 447.944L341.227 442.352L339.706 438.309L338.317 436.407L336.213 432.537L335.229 427.475L334.543 424.936L330.939 419.328L329.298 411.348L328.113 406.031L328.127 400.959L327.358 397.01L321.591 399.537L318.799 399.032L313.622 393.901L315.527 392.361L314.357 390.685L309.708 387.046L312.347 384.167L321.067 384.178L320.281 380.451L318.054 378.238L317.603 374.859L315.01 372.877L319.377 368.22L323.979 368.559L328.124 363.858L330.607 359.264L334.456 354.672L334.394 351.381L337.774 348.692L334.575 346.382L333.198 343.197L331.794 339.033L333.736 336.968L339.749 338.138L344.165 337.426L347.993 333.375Z" fill="#F0F0F0"/>
<path d="M446.062 434.776L442.505 432.926L439.116 433.001L439.697 429.825L436.206 429.849L435.892 434.291L433.753 440.162L432.466 443.698L432.737 446.587L435.318 446.713L436.926 450.348L437.639 453.788L439.849 456.061L442.25 456.522L444.304 458.578L443.009 460.204L440.392 460.677L440.081 458.645L436.847 456.909L436.159 457.616L434.593 456.095L433.915 454.13L431.81 451.889L429.889 450.002L429.238 452.338L428.487 450.131L428.92 447.646L430.087 443.819L432.006 439.704L434.183 435.959L432.634 432.283L432.696 430.406L432.243 428.145L429.6 424.917L428.654 422.873L430.022 422.119L431.472 418.561L429.85 415.851L427.335 412.841L425.419 409.206L427.092 408.451L428.899 403.942L431.697 403.754L434.008 401.937L436.279 400.966L437.993 402.262L438.221 404.778L440.898 404.97L439.924 409.357L440.017 413.068L444.194 410.601L445.381 411.331L447.702 411.211L448.5 409.77L451.497 410.054L454.511 413.415L454.759 417.478L457.967 421.05L457.79 424.502L456.5 426.335L452.786 425.752L447.662 426.529L445.124 429.9L446.062 434.776Z" fill="#F0F0F0"/>
<path d="M320.953 309.613L319.503 311.204L315.189 310.342L314.813 313.304L319.111 312.907L324.006 314.567L331.499 313.794L332.504 318.49L333.806 317.983L336.213 319.13L336.074 321.082L336.669 323.926L332.582 323.917L329.853 323.551L327.384 325.772L325.626 326.262L324.243 327.298L322.676 325.683L323.045 321.505L321.846 321.266L322.277 319.734L320.132 318.589L318.426 320.339L318.006 322.357L317.397 323.089L315.028 322.984L313.751 325.259L312.414 324.302L309.546 325.893L308.335 325.29L310.562 320.245L309.706 316.489L306.798 315.278L307.826 313.029L311.134 313.269L313.017 310.43L314.278 307.104L319.576 305.891L318.751 308.307L319.318 309.747L320.953 309.613Z" fill="#F0F0F0"/>
</g>
<defs>
<clipPath id="clip0">
<rect width="612" height="455" fill="white"/>
</clipPath>
</defs>
</svg>
