<svg xmlns="http://www.w3.org/2000/svg" width="105.22" height="70.28" viewBox="0 0 105.22 70.28">
  <defs>
    <style>
      .cls-1 {
        fill: #1ac6df;
        fill-rule: evenodd;
      }
    </style>
  </defs>
  <path id="_10" data-name="10" class="cls-1" d="M1544.63,3370.04v-31.5h7.5a1.412,1.412,0,0,0,1.6-1.6v-33.5a1.46,1.46,0,0,0-1.6-1.7,1.72,1.72,0,0,0-1.2.45,1.612,1.612,0,0,0-.5,1.25v31.8h-7.4a1.72,1.72,0,0,0-1.2.45,1.612,1.612,0,0,0-.5,1.25v33.1a1.612,1.612,0,0,0,.5,1.25,1.72,1.72,0,0,0,1.2.45,1.46,1.46,0,0,0,1.6-1.7h0Zm6.2-25.25a1.484,1.484,0,0,0-.5,1.15v18.3a1.612,1.612,0,0,0,.5,1.25,1.72,1.72,0,0,0,1.2.45,1.46,1.46,0,0,0,1.6-1.7v-18.3a1.412,1.412,0,0,0-1.6-1.6A1.72,1.72,0,0,0,1550.83,3344.79Zm-8.9-32.25-18.3,14.7a2.088,2.088,0,0,0-.6,1.2,1.338,1.338,0,0,0,.4,1.2,1.612,1.612,0,0,0,1.3.6,1.349,1.349,0,0,0,1-.4l15.6-12.6v10.8a1.484,1.484,0,0,0,.5,1.15,1.72,1.72,0,0,0,1.2.45,1.412,1.412,0,0,0,1.6-1.6v-14.3a1.412,1.412,0,0,0-1.6-1.6,1.7,1.7,0,0,0-1.1.4h0Zm-0.9-9.7a1.523,1.523,0,0,0-1.3-.7,1.9,1.9,0,0,0-1,.4l-15.4,12.4a1.674,1.674,0,0,0-.6,1.1,1.469,1.469,0,0,0,.3,1.2,1.81,1.81,0,0,0,1.3.6,1.473,1.473,0,0,0,1.1-.4l15.4-12.3a1.41,1.41,0,0,0,.2-2.3h0Zm11,68.8a1.631,1.631,0,0,0,1.7-1.2,2.155,2.155,0,0,0-.1-1.45,1.5,1.5,0,0,0-1-.85,1.325,1.325,0,0,0-.6-0.1,1.542,1.542,0,0,0-1.7,1.2,1.823,1.823,0,0,0,0,1.45,1.547,1.547,0,0,0,1.1.85Zm58.45-2.55a28.988,28.988,0,0,0,9.5-7.85,36,36,0,0,0,5.9-11.2,42.245,42.245,0,0,0,0-26,36,36,0,0,0-5.9-11.2,28.988,28.988,0,0,0-9.5-7.85,27.32,27.32,0,0,0-12.85-2.95,1.412,1.412,0,0,0-1.6,1.6v7.2a19.412,19.412,0,0,0-8.8,2.75,21.189,21.189,0,0,0-6.3,5.95,26.365,26.365,0,0,0-3.75,8.1,34.367,34.367,0,0,0-1.25,9.2,33.045,33.045,0,0,0,1.4,9.55,26.186,26.186,0,0,0,4.15,8.3,21.468,21.468,0,0,0,6.8,5.9,19.144,19.144,0,0,0,9.45,2.25,19.533,19.533,0,0,0,9.4-2.2,20.351,20.351,0,0,0,6.8-5.85,26.724,26.724,0,0,0,4.1-8.3,33.421,33.421,0,0,0,1.4-9.65,45.177,45.177,0,0,0-.6-7.35,25.984,25.984,0,0,0-2.1-6.85,22.146,22.146,0,0,0-3.95-5.8,18.6,18.6,0,0,0-6.05-4.2,1.66,1.66,0,0,0-.7-0.1,1.59,1.59,0,0,0-1.5,1,1.476,1.476,0,0,0-.05,1.25,1.358,1.358,0,0,0,.95.85,14.02,14.02,0,0,1,5.6,4.15,21.552,21.552,0,0,1,3.25,5.65,24.47,24.47,0,0,1,1.5,6.05,48.456,48.456,0,0,1,.35,5.35,31.477,31.477,0,0,1-1.1,8.25,22.953,22.953,0,0,1-3.4,7.3,17.463,17.463,0,0,1-5.75,5.2,16.3,16.3,0,0,1-8.15,1.95,16.01,16.01,0,0,1-8.15-2,18.26,18.26,0,0,1-5.75-5.2,23.244,23.244,0,0,1-3.45-7.25,29.934,29.934,0,0,1-1.15-8.25,31.477,31.477,0,0,1,1.1-8.25,22.953,22.953,0,0,1,3.4-7.3,17.948,17.948,0,0,1,5.75-5.25,16.01,16.01,0,0,1,8.15-2,1.72,1.72,0,0,0,1.2-.45,1.484,1.484,0,0,0,.5-1.15v-7.1a23.473,23.473,0,0,1,10.8,3.25,27.672,27.672,0,0,1,7.95,7.25,31.776,31.776,0,0,1,4.9,9.95,39.282,39.282,0,0,1,1.65,11.25,38.164,38.164,0,0,1-1.8,11.65,33.5,33.5,0,0,1-5.2,10.15,25.557,25.557,0,0,1-8.45,7.2,25.84,25.84,0,0,1-23,0,26.257,26.257,0,0,1-8.5-7.15,32.292,32.292,0,0,1-5.25-10.15,38.626,38.626,0,0,1-1.8-11.7,38.22,38.22,0,0,1,3.8-17.55,24.687,24.687,0,0,1,10.7-11.05,1.554,1.554,0,0,0,.7-2.3,1.954,1.954,0,0,0-2.2-.7,28.654,28.654,0,0,0-12.05,12.4,44.143,44.143,0,0,0-2.2,32.2,36,36,0,0,0,5.9,11.2,28.988,28.988,0,0,0,9.5,7.85A29.462,29.462,0,0,0,1610.48,3369.09Zm-19.25-63.65a2.056,2.056,0,0,0-.1-1.4,1.473,1.473,0,0,0-1-.9,1.325,1.325,0,0,0-.6-0.1,1.733,1.733,0,0,0-1.7,1.2v0.1a1.621,1.621,0,0,0,.2,1.35,2.867,2.867,0,0,0,1.5,1.05,1.558,1.558,0,0,0,1.7-1.3h0Z" transform="translate(-1522.72 -3301.75)"/>
</svg>
