<svg xmlns="http://www.w3.org/2000/svg" width="120.82" height="70.28" viewBox="0 0 120.82 70.28">
  <defs>
    <style>
      .cls-1 {
        fill: #1ac6df;
        fill-rule: evenodd;
      }
    </style>
  </defs>
  <path id="_20" data-name="20" class="cls-1" d="M1897.83,3360.54a94.963,94.963,0,0,0,19.95-15.65,82.894,82.894,0,0,0,14.55-20.75,1.481,1.481,0,0,0,0-1.3,1.962,1.962,0,0,0-.9-0.9,1.325,1.325,0,0,0-.6-0.1,1.381,1.381,0,0,0-1.5,1c-0.07.07-.63,1.2-1.7,3.4a56.453,56.453,0,0,1-5.4,8.4,86.369,86.369,0,0,1-11.9,12.8,88.487,88.487,0,0,1-14.2,10.2,1.709,1.709,0,0,0-.75,1.05,1.809,1.809,0,0,0,.15,1.25,1.652,1.652,0,0,0,1.5.8,3.485,3.485,0,0,0,.8-0.2h0Zm-1.35-44a23.943,23.943,0,0,0-1.15,8.6,1.46,1.46,0,0,0,1.7,1.6,1.484,1.484,0,0,0,1.15-.5,1.394,1.394,0,0,0,.35-1.2,18.594,18.594,0,0,1,4.6-13.6q5.3-5.895,15.5-6.4a1.98,1.98,0,0,0,1.15-.55,1.268,1.268,0,0,0,.35-1.15,1.612,1.612,0,0,0-.5-1.25,1.394,1.394,0,0,0-1.2-.35,27.455,27.455,0,0,0-10.15,2.15,22,22,0,0,0-7.55,5.35A20.176,20.176,0,0,0,1896.48,3316.54Zm27.15-7.3h-1a4.846,4.846,0,0,0-1,.1,29.58,29.58,0,0,0-4.35.5,20.611,20.611,0,0,0-6.05,2.1q-7.605,4.2-7.1,12.8a1.46,1.46,0,0,0,1.7,1.6,1.484,1.484,0,0,0,1.15-.5,1.72,1.72,0,0,0,.45-1.2,9.575,9.575,0,0,1,1.4-6.2,10.283,10.283,0,0,1,2.5-2.6,14.908,14.908,0,0,1,3.25-1.8,18.664,18.664,0,0,1,3.65-1.05,20.266,20.266,0,0,1,3.6-.35,4.341,4.341,0,0,1,.9-0.1h0.9q8.2,0,11.9,3.6a7.419,7.419,0,0,1,2.25,3.7c0.23,1.2.35,1.87,0.35,2a22.218,22.218,0,0,1-1.5,7.95,39.217,39.217,0,0,1-3.85,7.55,61.417,61.417,0,0,1-5.2,6.85,77.588,77.588,0,0,1-5.65,5.85,75.765,75.765,0,0,1-6.85,5.65q-4.35,3.255-8.45,6.45t-7,5.8q-2.895,2.595-2.6,3.8h42.1a1.72,1.72,0,0,0,1.2-.45,1.484,1.484,0,0,0,.5-1.15,1.707,1.707,0,0,0-1.7-1.7h-36.6q2.295-1.5,5.25-3.55t6-4.2c2.03-1.43,3.97-2.87,5.8-4.3s3.38-2.72,4.65-3.85q3-2.895,6.1-6.4a54.168,54.168,0,0,0,5.55-7.45,44.372,44.372,0,0,0,4-8.2,25.148,25.148,0,0,0,1.55-8.65c0-.07-0.02-0.37-0.05-0.9a8.1,8.1,0,0,0-.4-1.9,16.967,16.967,0,0,0-1.05-2.5,10.586,10.586,0,0,0-2-2.7q-4.9-4.605-14.3-4.6h0Zm-1.8,52.1a1.72,1.72,0,0,0,.45,1.2,1.612,1.612,0,0,0,1.25.5h9.6a1.707,1.707,0,0,0,1.7-1.7,1.484,1.484,0,0,0-.5-1.15,1.72,1.72,0,0,0-1.2-.45h-9.6a1.46,1.46,0,0,0-1.7,1.6h0Zm15.4,0.85a2.441,2.441,0,0,0,1.5.95,1.733,1.733,0,0,0,1.7-1.2v-0.1a1.9,1.9,0,0,0-.1-1.35,1.5,1.5,0,0,0-1-.85,1.325,1.325,0,0,0-.6-0.1,1.733,1.733,0,0,0-1.7,1.2A1.818,1.818,0,0,0,1937.23,3362.19Zm61.45,6.9a29.09,29.09,0,0,0,9.5-7.85,36.209,36.209,0,0,0,5.9-11.2,42.245,42.245,0,0,0,0-26,36.209,36.209,0,0,0-5.9-11.2,29.09,29.09,0,0,0-9.5-7.85,27.32,27.32,0,0,0-12.85-2.95,1.412,1.412,0,0,0-1.6,1.6v7.2a19.373,19.373,0,0,0-8.8,2.75,20.953,20.953,0,0,0-6.3,5.95,26.365,26.365,0,0,0-3.75,8.1,33.97,33.97,0,0,0-1.25,9.2,32.706,32.706,0,0,0,1.4,9.55,25.98,25.98,0,0,0,4.15,8.3,21.468,21.468,0,0,0,6.8,5.9,19.144,19.144,0,0,0,9.45,2.25,19.561,19.561,0,0,0,9.4-2.2,20.351,20.351,0,0,0,6.8-5.85,26.945,26.945,0,0,0,4.1-8.3,33.421,33.421,0,0,0,1.4-9.65,45.177,45.177,0,0,0-.6-7.35,25.984,25.984,0,0,0-2.1-6.85,22.146,22.146,0,0,0-3.95-5.8,18.7,18.7,0,0,0-6.05-4.2,1.691,1.691,0,0,0-.7-0.1,1.59,1.59,0,0,0-1.5,1,1.476,1.476,0,0,0-.05,1.25,1.339,1.339,0,0,0,.95.85,14.02,14.02,0,0,1,5.6,4.15,21.552,21.552,0,0,1,3.25,5.65,25.39,25.39,0,0,1,1.5,6.05,48.456,48.456,0,0,1,.35,5.35,31.477,31.477,0,0,1-1.1,8.25,23.171,23.171,0,0,1-3.4,7.3,17.562,17.562,0,0,1-5.75,5.2,16.3,16.3,0,0,1-8.15,1.95,15.984,15.984,0,0,1-8.15-2,18.26,18.26,0,0,1-5.75-5.2,22.809,22.809,0,0,1-3.45-7.25,29.934,29.934,0,0,1-1.15-8.25,31.063,31.063,0,0,1,1.1-8.25,22.74,22.74,0,0,1,3.4-7.3,17.948,17.948,0,0,1,5.75-5.25,15.984,15.984,0,0,1,8.15-2,1.755,1.755,0,0,0,1.2-.45,1.484,1.484,0,0,0,.5-1.15v-7.1a23.547,23.547,0,0,1,10.8,3.25,27.672,27.672,0,0,1,7.95,7.25,31.993,31.993,0,0,1,4.9,9.95,39.282,39.282,0,0,1,1.65,11.25,38.164,38.164,0,0,1-1.8,11.65,33.728,33.728,0,0,1-5.2,10.15,25.657,25.657,0,0,1-8.45,7.2,24.135,24.135,0,0,1-11.55,2.7,23.873,23.873,0,0,1-11.45-2.7,26.257,26.257,0,0,1-8.5-7.15,32.292,32.292,0,0,1-5.25-10.15,38.626,38.626,0,0,1-1.8-11.7,38.094,38.094,0,0,1,3.8-17.55,24.687,24.687,0,0,1,10.7-11.05,1.56,1.56,0,0,0,.7-2.3,1.674,1.674,0,0,0-1.5-.8,1.63,1.63,0,0,0-.7.1,28.654,28.654,0,0,0-12.05,12.4,41.113,41.113,0,0,0-4.25,19.2,41.638,41.638,0,0,0,2.05,13,35.79,35.79,0,0,0,5.9,11.2,28.886,28.886,0,0,0,9.5,7.85A29.462,29.462,0,0,0,1998.68,3369.09Zm-19.25-63.65a2.056,2.056,0,0,0-.1-1.4,1.494,1.494,0,0,0-1-.9,1.382,1.382,0,0,0-.6-0.1,1.733,1.733,0,0,0-1.7,1.2v0.1a1.586,1.586,0,0,0,.2,1.35,2.787,2.787,0,0,0,1.5,1.05,1.558,1.558,0,0,0,1.7-1.3h0Z" transform="translate(-1895.31 -3301.75)"/>
</svg>
