<svg xmlns="http://www.w3.org/2000/svg" width="121.59" height="70.4" viewBox="0 0 121.59 70.4">
  <defs>
    <style>
      .cls-1 {
        fill: #1ac6df;
        fill-rule: evenodd;
      }
    </style>
  </defs>
  <path id="_30" data-name="30" class="cls-1" d="M1551.08,3333.54a15.22,15.22,0,0,0,3.65-2,13.128,13.128,0,0,0,2.85-2.95,24.724,24.724,0,0,0,2.45-4.55,1.8,1.8,0,0,0-.05-1.25,1.354,1.354,0,0,0-.85-0.85,1.325,1.325,0,0,0-.6-0.1,1.555,1.555,0,0,0-1.6,1,17.988,17.988,0,0,1-2.15,4.05,10.524,10.524,0,0,1-2.7,2.55,13.855,13.855,0,0,1-3.5,1.6c-1.3.4-2.78,0.83-4.45,1.3a1.4,1.4,0,0,0-1.2,1.6v5.7a1.421,1.421,0,0,0,1.3,1.6,36.984,36.984,0,0,1,5.25,1.5,13.379,13.379,0,0,1,3.45,1.9,9.762,9.762,0,0,1,2.3,2.55,20.7,20.7,0,0,1,1.7,3.55,2.059,2.059,0,0,0,2.2.9,1.354,1.354,0,0,0,.85-0.85,1.8,1.8,0,0,0,.05-1.25,23.974,23.974,0,0,0-2.15-4.25,13.347,13.347,0,0,0-2.75-3.05,16.361,16.361,0,0,0-3.75-2.25,29.8,29.8,0,0,0-5.15-1.65v-3.2C1548.1,3334.61,1549.71,3334.07,1551.08,3333.54Zm-26.55,24.65a22.152,22.152,0,0,0,5.1,6.85,24.685,24.685,0,0,0,7.4,4.6,28.262,28.262,0,0,0,8.8,2,1.37,1.37,0,0,0,1.6-1.5,1.394,1.394,0,0,0-.35-1.2,1.872,1.872,0,0,0-1.15-.6,22.931,22.931,0,0,1-7.5-1.65,22.46,22.46,0,0,1-6.4-3.9,18.069,18.069,0,0,1-4.45-5.9,17.281,17.281,0,0,1-1.65-7.55,1.707,1.707,0,0,0-1.7-1.7,1.484,1.484,0,0,0-1.15.5,1.72,1.72,0,0,0-.45,1.2A20.088,20.088,0,0,0,1524.53,3358.19Zm8.1-52.6a21.389,21.389,0,0,0-5.45,4.7,20.788,20.788,0,0,0-3.5,6.25,22.189,22.189,0,0,0-1.25,7.5,1.46,1.46,0,0,0,1.6,1.7,1.72,1.72,0,0,0,1.2-.45,1.612,1.612,0,0,0,.5-1.25,17.72,17.72,0,0,1,4.05-11.75,19.445,19.445,0,0,1,10.65-6.45,1.68,1.68,0,0,0,1.05-.8,1.431,1.431,0,0,0,.15-1.2,1.5,1.5,0,0,0-1.6-1.3,0.568,0.568,0,0,0-.4.1A26.271,26.271,0,0,0,1532.63,3305.59Zm-0.6,19.7a1.72,1.72,0,0,0,1.2.45,1.46,1.46,0,0,0,1.6-1.7,8.933,8.933,0,0,1,1.55-5.35,12.007,12.007,0,0,1,4-3.5,18.021,18.021,0,0,1,5.35-1.9,29.739,29.739,0,0,1,5.6-.55q8.895,0,12.5,5.1a7.525,7.525,0,0,1,1.7,3.25c0.2,1.03.3,1.62,0.3,1.75q0,7.005-4.6,10.1a11.052,11.052,0,0,1-1.7.95,11.611,11.611,0,0,1-1.5.55,7.3,7.3,0,0,1-1.5.4,1.919,1.919,0,0,0-1.05.55,1.552,1.552,0,0,0-.45,1.15,1.439,1.439,0,0,0,.45,1.05,1.919,1.919,0,0,0,1.05.55,8.973,8.973,0,0,1,4.05,1.3,9.894,9.894,0,0,1,2.9,2.75,11.693,11.693,0,0,1,1.7,3.7,15.826,15.826,0,0,1,.55,4.15c0,0.13-.12.73-0.35,1.8a10.127,10.127,0,0,1-1.65,3.5q-3.6,5.295-12.4,5.3h-0.1a37.772,37.772,0,0,1-5.8-.45,16.7,16.7,0,0,1-5.2-1.65,9.845,9.845,0,0,1-3.75-3.45,10.414,10.414,0,0,1-1.45-5.75,1.72,1.72,0,0,0-.45-1.2,1.484,1.484,0,0,0-1.15-.5,1.707,1.707,0,0,0-1.7,1.7,13.817,13.817,0,0,0,1.65,7.1,12.9,12.9,0,0,0,4.4,4.5,17.992,17.992,0,0,0,6.2,2.35,38.283,38.283,0,0,0,7.05.65h0.3a20.881,20.881,0,0,0,9.8-2.1,15.832,15.832,0,0,0,5.5-4.9,11.565,11.565,0,0,0,2.4-6.9q0-5.4-2-8.45a15.331,15.331,0,0,0-4.1-4.45c-0.2-.13-0.38-0.25-0.55-0.35s-0.35-.22-0.55-0.35a11.379,11.379,0,0,0,5.6-5.7,19.415,19.415,0,0,0,1.7-8c0-.07-0.12-0.78-0.35-2.15a11.3,11.3,0,0,0-2.15-4.55,13.077,13.077,0,0,0-6.75-5.2,26.692,26.692,0,0,0-8.55-1.4,31.048,31.048,0,0,0-6.9.8,20.832,20.832,0,0,0-6.35,2.55,15.189,15.189,0,0,0-4.7,4.5,11.829,11.829,0,0,0-1.85,6.75A1.612,1.612,0,0,0,1532.03,3325.29Zm15.2-21.25v-0.1a1.9,1.9,0,0,0-.1-1.35,1.5,1.5,0,0,0-1-.85,1.325,1.325,0,0,0-.6-0.1,1.542,1.542,0,0,0-1.7,1.2c-0.47,1.2.1,2,1.7,2.4a1.733,1.733,0,0,0,1.7-1.2h0Zm79.35,65.05a29.09,29.09,0,0,0,9.5-7.85,36.209,36.209,0,0,0,5.9-11.2,42.245,42.245,0,0,0,0-26,36.209,36.209,0,0,0-5.9-11.2,29.09,29.09,0,0,0-9.5-7.85,27.32,27.32,0,0,0-12.85-2.95,1.412,1.412,0,0,0-1.6,1.6v7.2a19.373,19.373,0,0,0-8.8,2.75,20.953,20.953,0,0,0-6.3,5.95,26.365,26.365,0,0,0-3.75,8.1,33.97,33.97,0,0,0-1.25,9.2,32.706,32.706,0,0,0,1.4,9.55,25.98,25.98,0,0,0,4.15,8.3,21.468,21.468,0,0,0,6.8,5.9,19.144,19.144,0,0,0,9.45,2.25,19.561,19.561,0,0,0,9.4-2.2,20.351,20.351,0,0,0,6.8-5.85,26.945,26.945,0,0,0,4.1-8.3,33.421,33.421,0,0,0,1.4-9.65,45.177,45.177,0,0,0-.6-7.35,25.984,25.984,0,0,0-2.1-6.85,22.146,22.146,0,0,0-3.95-5.8,18.7,18.7,0,0,0-6.05-4.2,1.691,1.691,0,0,0-.7-0.1,1.59,1.59,0,0,0-1.5,1,1.476,1.476,0,0,0-.05,1.25,1.339,1.339,0,0,0,.95.85,14.02,14.02,0,0,1,5.6,4.15,21.552,21.552,0,0,1,3.25,5.65,25.39,25.39,0,0,1,1.5,6.05,48.456,48.456,0,0,1,.35,5.35,31.477,31.477,0,0,1-1.1,8.25,23.171,23.171,0,0,1-3.4,7.3,17.562,17.562,0,0,1-5.75,5.2,16.3,16.3,0,0,1-8.15,1.95,15.984,15.984,0,0,1-8.15-2,18.26,18.26,0,0,1-5.75-5.2,22.809,22.809,0,0,1-3.45-7.25,29.934,29.934,0,0,1-1.15-8.25,31.063,31.063,0,0,1,1.1-8.25,22.74,22.74,0,0,1,3.4-7.3,17.948,17.948,0,0,1,5.75-5.25,15.984,15.984,0,0,1,8.15-2,1.755,1.755,0,0,0,1.2-.45,1.484,1.484,0,0,0,.5-1.15v-7.1a23.547,23.547,0,0,1,10.8,3.25,27.672,27.672,0,0,1,7.95,7.25,31.993,31.993,0,0,1,4.9,9.95,39.282,39.282,0,0,1,1.65,11.25,38.164,38.164,0,0,1-1.8,11.65,33.728,33.728,0,0,1-5.2,10.15,25.657,25.657,0,0,1-8.45,7.2,24.135,24.135,0,0,1-11.55,2.7,23.873,23.873,0,0,1-11.45-2.7,26.257,26.257,0,0,1-8.5-7.15,32.292,32.292,0,0,1-5.25-10.15,38.626,38.626,0,0,1-1.8-11.7,38.094,38.094,0,0,1,3.8-17.55,24.687,24.687,0,0,1,10.7-11.05,1.56,1.56,0,0,0,.7-2.3,1.674,1.674,0,0,0-1.5-.8,1.63,1.63,0,0,0-.7.1,28.654,28.654,0,0,0-12.05,12.4,41.113,41.113,0,0,0-4.25,19.2,41.638,41.638,0,0,0,2.05,13,35.79,35.79,0,0,0,5.9,11.2,28.886,28.886,0,0,0,9.5,7.85A29.462,29.462,0,0,0,1626.58,3369.09Zm-19.25-63.65a2.056,2.056,0,0,0-.1-1.4,1.494,1.494,0,0,0-1-.9,1.382,1.382,0,0,0-.6-0.1,1.733,1.733,0,0,0-1.7,1.2v0.1a1.586,1.586,0,0,0,.2,1.35,2.787,2.787,0,0,0,1.5,1.05,1.558,1.558,0,0,0,1.7-1.3h0Z" transform="translate(-1522.44 -3301.63)"/>
</svg>
