<svg xmlns="http://www.w3.org/2000/svg" xmlns:xlink="http://www.w3.org/1999/xlink" width="76.781" height="76.22" viewBox="0 0 76.781 76.22">
  <defs>
    <style>
      .cls-1 {
        fill-rule: evenodd;
        filter: url(#filter);
      }
    </style>
    <filter id="filter" x="801.969" y="2347.69" width="76.781" height="76.22" filterUnits="userSpaceOnUse">
      <feFlood result="flood" flood-color="#1ac6df"/>
      <feComposite result="composite" operator="in" in2="SourceGraphic"/>
      <feBlend result="blend" in2="SourceGraphic"/>
    </filter>
  </defs>
  <path class="cls-1" d="M866.77,2397.28c-6.95-3.19-19.159-8.18-21.313-9.06l0.16-5.54a8.141,8.141,0,0,0-2.154-5.37,3.64,3.64,0,0,0-5.659,0,8.111,8.111,0,0,0-2.154,5.37l0.165,5.7c-2.976,1.22-14.313,5.87-20.911,8.9a1.143,1.143,0,0,0,.475,2.18,0.251,0.251,0,0,0,.085-0.01l20.626-1.53,0.28,9.69-6.777,5.7a1.144,1.144,0,0,0,.733,2.02,1.186,1.186,0,0,0,.321-0.05l7.154-2.11a2.622,2.622,0,0,0,2.568,2.16H840.9a2.622,2.622,0,0,0,2.568-2.16l7.154,2.11a1.186,1.186,0,0,0,.321.05,1.144,1.144,0,0,0,.733-2.02l-6.777-5.7,0.281-9.72,21.033,1.56a0.248,0.248,0,0,0,.085.01A1.143,1.143,0,0,0,866.77,2397.28Zm-44.911-.59c5.379-2.32,11.3-4.76,14.026-5.87l0.139,4.82Zm13.359,14.87,1.705-1.44a4.022,4.022,0,0,0,.552.77Zm5.679,1.49h-0.528a0.344,0.344,0,0,1-.334-0.34v-0.2l0.6-.17,0.6,0.17v0.2h0A0.344,0.344,0,0,1,840.9,2413.05Zm1.707-4.95a1.971,1.971,0,0,1-3.941,0l-0.737-25.48a5.863,5.863,0,0,1,1.511-3.73,1.426,1.426,0,0,1,2.393,0,5.863,5.863,0,0,1,1.511,3.73Zm3.445,3.46-2.258-.67a3.979,3.979,0,0,0,.552-0.77Zm-0.806-15.95,0.144-4.96c2.5,1.02,8.766,3.6,14.428,6.04Zm29.041-47.91H806.44a4.484,4.484,0,0,0-4.478,4.48v24.93a1.139,1.139,0,0,0,2.277,0v-4.53h72.246v46.84a2.205,2.205,0,0,1-2.2,2.2H806.44a2.2,2.2,0,0,1-2.2-2.2v-34.63a1.139,1.139,0,1,0-2.277,0v34.63a4.484,4.484,0,0,0,4.478,4.48h67.844a4.484,4.484,0,0,0,4.478-4.48v-67.24A4.484,4.484,0,0,0,874.284,2347.7Zm2.2,22.6H804.321v-7.42h72.164v7.42Zm0-9.7H804.239v-8.42a2.2,2.2,0,0,1,2.2-2.2h67.844a2.205,2.205,0,0,1,2.2,2.2v8.42h0Zm-6.39-8.73a3.385,3.385,0,1,0,3.384,3.38A3.388,3.388,0,0,0,870.1,2351.87Zm0,4.49a1.105,1.105,0,1,1,1.107-1.11A1.1,1.1,0,0,1,870.1,2356.36Zm-9.17-4.49a3.385,3.385,0,1,0,3.384,3.38A3.388,3.388,0,0,0,860.925,2351.87Zm0,4.49a1.105,1.105,0,1,1,1.107-1.11A1.1,1.1,0,0,1,860.925,2356.36Zm-9.17-4.49a3.385,3.385,0,1,0,3.384,3.38A3.388,3.388,0,0,0,851.755,2351.87Zm0,4.49a1.105,1.105,0,1,1,1.107-1.11A1.1,1.1,0,0,1,851.755,2356.36Zm-11-4.49H811.818a3.385,3.385,0,0,0,0,6.77h28.934A3.385,3.385,0,0,0,840.752,2351.87Zm0,4.49H811.818a1.105,1.105,0,1,1,0-2.21h28.934A1.105,1.105,0,1,1,840.752,2356.36Z" transform="translate(-801.969 -2347.69)"/>
</svg>
