<svg xmlns="http://www.w3.org/2000/svg" xmlns:xlink="http://www.w3.org/1999/xlink" width="76.82" height="76.82" viewBox="0 0 76.82 76.82">
  <defs>
    <style>
      .cls-1 {
        fill-rule: evenodd;
        filter: url(#filter);
      }
    </style>
    <filter id="filter" x="1561.59" y="2346.59" width="76.82" height="76.82" filterUnits="userSpaceOnUse">
      <feFlood result="flood" flood-color="#1ac6df"/>
      <feComposite result="composite" operator="in" in2="SourceGraphic"/>
      <feBlend result="blend" in2="SourceGraphic"/>
    </filter>
  </defs>
  <path class="cls-1" d="M1602.43,2418.55a1.221,1.221,0,0,0,1.21-1.21v-4.85a1.215,1.215,0,1,0-2.43,0v4.85A1.216,1.216,0,0,0,1602.43,2418.55Zm12.93,0a1.214,1.214,0,0,0,1.21-1.21v-4.85a1.21,1.21,0,1,0-2.42,0v4.85A1.208,1.208,0,0,0,1615.36,2418.55Zm-6.47,0a1.223,1.223,0,0,0,1.22-1.21v-4.85a1.215,1.215,0,1,0-2.43,0v4.85A1.208,1.208,0,0,0,1608.89,2418.55Zm21.83-67.1h-37.59v-0.4a4.453,4.453,0,0,0-4.45-4.45h-12.93a4.453,4.453,0,0,0-4.45,4.45v0.4h-2.02a7.688,7.688,0,0,0-7.68,7.68v48.5a7.688,7.688,0,0,0,7.68,7.68h24.16l0.78,2.62a7.635,7.635,0,0,0,7.36,5.47h14.63a7.632,7.632,0,0,0,7.35-5.47l0.79-2.62h6.37a7.688,7.688,0,0,0,7.68-7.68v-48.5A7.688,7.688,0,0,0,1630.72,2351.45Zm-56.99-.4a2.023,2.023,0,0,1,2.02-2.03h12.93a2.023,2.023,0,0,1,2.02,2.03v10.1h-16.97v-10.1Zm-9.7,8.08a5.258,5.258,0,0,1,5.25-5.26h2.02v7.28h-7.27v-2.02Zm58.26,54.6a0.257,0.257,0,0,0-.02.05l-1.03,3.45a5.211,5.211,0,0,1-5.03,3.74h-14.63a5.211,5.211,0,0,1-5.03-3.74l-1.04-3.45a0.076,0.076,0,0,0-.02-0.05l-1.46-4.88h29.72Zm-29.86-7.31h-0.51a2.02,2.02,0,1,1,0-4.04h9.29v4.04h-8.78Zm11.21,0v-4.04h22.23a2.02,2.02,0,1,1,0,4.04h-22.23Zm0-6.47v-5.25a5.255,5.255,0,1,1,10.51,0v5.25h-10.51Zm32.33,7.68a5.258,5.258,0,0,1-5.25,5.26h-5.65l1.22-4.06a4.45,4.45,0,0,0-.42-8.88h-9.3v-5.25a7.68,7.68,0,1,0-15.36,0v5.25h-9.29a4.45,4.45,0,0,0-.43,8.88l1.22,4.06h-23.43a5.258,5.258,0,0,1-5.25-5.26v-44.06h71.94v44.06h0Zm0-46.48h-42.84v-7.28h37.59a5.258,5.258,0,0,1,5.25,5.26v2.02Zm-11.72-4.93a1.208,1.208,0,0,0-1.21,1.21v0.16a1.215,1.215,0,1,0,2.43,0v-0.16A1.216,1.216,0,0,0,1624.25,2356.22Zm4.85,0a1.208,1.208,0,0,0-1.21,1.21v0.16a1.215,1.215,0,1,0,2.43,0v-0.16A1.216,1.216,0,0,0,1629.1,2356.22Zm-35.73,15.44h35.57a1.215,1.215,0,0,0,0-2.43h-35.57A1.215,1.215,0,0,0,1593.37,2371.66Zm26.03-15.44a1.208,1.208,0,0,0-1.21,1.21v0.16a1.21,1.21,0,1,0,2.42,0v-0.16A1.208,1.208,0,0,0,1619.4,2356.22Zm-45.43,51.01h9.7a1.21,1.21,0,0,0,0-2.42h-9.7a2.023,2.023,0,0,1-2.02-2.03v-21.02a2.021,2.021,0,0,1,2.02-2.02h51.74a2.027,2.027,0,0,1,2.02,2.02v14.56a1.21,1.21,0,0,0,2.42,0v-14.56a4.443,4.443,0,0,0-4.44-4.44h-51.74a4.451,4.451,0,0,0-4.45,4.44v21.02A4.453,4.453,0,0,0,1573.97,2407.23Zm-3.24-35.57h11.32a1.215,1.215,0,1,0,0-2.43h-11.32A1.215,1.215,0,0,0,1570.73,2371.66Z" transform="translate(-1561.59 -2346.59)"/>
</svg>
