<svg xmlns="http://www.w3.org/2000/svg" width="40" height="56" viewBox="0 0 40 56">
  <defs>
    <style>
      .cls-1 {
        fill: #1ac6df;
        fill-rule: evenodd;
      }
    </style>
  </defs>
  <path class="cls-1" d="M1093.39,3185.19v-6.55h3.09a1.4,1.4,0,1,0,0-2.8h-37.22a1.4,1.4,0,1,0,0,2.8h3.09v6.55a14.925,14.925,0,0,0,4.53,10.65l8.95,8.66-8.55,8.06a14.879,14.879,0,0,0-4.65,10.81v5.68h-3.37a1.4,1.4,0,1,0,0,2.8h37.22a1.4,1.4,0,1,0,0-2.8h-2.95v-5.57a14.886,14.886,0,0,0-4.83-10.95l-8.79-8.04,8.95-8.65A14.925,14.925,0,0,0,1093.39,3185.19Zm-15.52,17.38-9.04-8.74a12.087,12.087,0,0,1-3.68-8.64v-6.55h25.44v6.55a12.127,12.127,0,0,1-3.68,8.64Z" transform="translate(-1057.88 -3175.84)"/>
</svg>
