<svg xmlns="http://www.w3.org/2000/svg" width="40.04" height="56" viewBox="0 0 40.04 56">
  <defs>
    <style>
      .cls-1 {
        fill: #1ac6df;
        fill-rule: evenodd;
      }
    </style>
  </defs>
  <path class="cls-1" d="M1378.38,3185.19v-6.55h3.09a1.4,1.4,0,1,0,0-2.8h-37.22a1.4,1.4,0,0,0,0,2.8h3.09v6.55a14.934,14.934,0,0,0,4.54,10.66l8.94,8.65-8.55,8.06a14.885,14.885,0,0,0-4.65,10.82v5.68h-3.37a1.4,1.4,0,0,0,0,2.8h37.22a1.4,1.4,0,0,0,0-2.8h-2.95v-5.58a14.919,14.919,0,0,0-4.83-10.95l-8.79-8.04,8.95-8.64A14.965,14.965,0,0,0,1378.38,3185.19Zm-24.56,8.64h0a12.07,12.07,0,0,1-3.68-8.64v-6.55h25.44v6.55a12.11,12.11,0,0,1-3.68,8.64l-0.6-.33c-2.71-1.5-3.08.29-6.08,0.33C1362.18,3193.88,1356.51,3192.21,1353.82,3193.83Zm23.36,3.89" transform="translate(-1342.84 -3175.84)"/>
</svg>
