<svg xmlns="http://www.w3.org/2000/svg" width="40.031" height="56.03" viewBox="0 0 40.031 56.03">
  <defs>
    <style>
      .cls-1 {
        fill: #1ac6df;
        fill-rule: evenodd;
      }
    </style>
  </defs>
  <path class="cls-1" d="M808.405,3185.18v-6.55h3.09a1.4,1.4,0,0,0,0-2.8h-37.22a1.4,1.4,0,0,0,0,2.8h3.09v6.55a14.965,14.965,0,0,0,4.536,10.65l8.943,8.66-8.549,8.06a14.864,14.864,0,0,0-4.65,10.81v5.68h-3.37a1.4,1.4,0,0,0,0,2.8H811.5a1.4,1.4,0,0,0,0-2.8h-2.95v-5.58a14.876,14.876,0,0,0-4.825-10.94l-8.79-8.04,8.941-8.65A14.959,14.959,0,0,0,808.405,3185.18Zm-2.656,38.28v-0.3l-10.855-2.44a18.873,18.873,0,0,0-12.477,1.47l-1.976.97v0.2a12.062,12.062,0,0,1,3.775-8.77l8.691-8.18,8.931,8.17A12.1,12.1,0,0,1,805.749,3223.46Zm-12.864-20.91-9.038-8.73a12.133,12.133,0,0,1-3.686-8.64v-6.55h25.448v6.55a12.133,12.133,0,0,1-3.686,8.64Zm-20.008,8.62" transform="translate(-772.875 -3175.81)"/>
</svg>
