<svg xmlns="http://www.w3.org/2000/svg" xmlns:xlink="http://www.w3.org/1999/xlink" width="88" height="79" viewBox="0 0 88 79">
  <defs>
    <style>
      .cls-1 {
        fill-rule: evenodd;
        filter: url(#filter);
      }
    </style>
    <filter id="filter" x="1176" y="2346" width="88" height="79" filterUnits="userSpaceOnUse">
      <feFlood result="flood" flood-color="#1ac6df"/>
      <feComposite result="composite" operator="in" in2="SourceGraphic"/>
      <feBlend result="blend" in2="SourceGraphic"/>
    </filter>
  </defs>
  <path class="cls-1" d="M1256.28,2383.56h-17.62a3.871,3.871,0,0,0-3.88,3.85v6.02a1.325,1.325,0,0,0,2.65,0v-1.2h20.08v23.84h-20.08v-18.71a1.325,1.325,0,0,0-2.65,0v23.79a3.862,3.862,0,0,0,3.88,3.84h17.62a3.862,3.862,0,0,0,3.88-3.84v-33.74A3.871,3.871,0,0,0,1256.28,2383.56Zm1.23,6.04h-20.08v-2.19a1.227,1.227,0,0,1,1.23-1.22h17.62a1.227,1.227,0,0,1,1.23,1.22v2.19h0Zm0,31.55a1.227,1.227,0,0,1-1.23,1.22h-17.62a1.227,1.227,0,0,1-1.23-1.22v-2.45h20.08v2.45h0Zm-0.42-75.15h-63.3a1.315,1.315,0,1,0,0,2.63h63.3a4.251,4.251,0,0,1,4.26,4.23v3.87h-82.7v-3.87a4.251,4.251,0,0,1,4.26-4.23h5.27a1.315,1.315,0,1,0,0-2.63h-5.27a6.9,6.9,0,0,0-6.91,6.86v45.8a6.886,6.886,0,0,0,6.91,6.85h27.96l-3,17.63a1.279,1.279,0,0,0,.3,1.06,1.312,1.312,0,0,0,1.01.47h21.64a1.33,1.33,0,0,0,1.31-1.53l-3-17.63h1.69a1.31,1.31,0,1,0,0-2.62h-47.91a4.251,4.251,0,0,1-4.26-4.23v-3.96h50.98a1.315,1.315,0,1,0,0-2.63h-50.98v-32.72h82.7v39.31a1.325,1.325,0,0,0,2.65,0v-45.8A6.9,6.9,0,0,0,1257.09,2346Zm-30.63,59.59,2.79,16.45h-18.51l2.8-16.45h12.92Zm-10.17-41.37h-32.86a1.317,1.317,0,0,0-1.32,1.31v10.23a1.317,1.317,0,0,0,1.32,1.31h32.86a1.317,1.317,0,0,0,1.32-1.31v-10.23A1.317,1.317,0,0,0,1216.29,2364.22Zm-1.33,10.23h-30.2v-7.6h30.2v7.6h0Zm14.67,5.75h-46.2a1.319,1.319,0,0,0-1.32,1.32v5.11a1.31,1.31,0,0,0,1.32,1.31h46.2a1.31,1.31,0,0,0,1.32-1.31v-5.11A1.319,1.319,0,0,0,1229.63,2380.2Zm-1.33,5.12h-43.54v-2.49h43.54v2.49Zm27.53-21.1h-33.66a1.317,1.317,0,0,0-1.32,1.31v10.23a1.317,1.317,0,0,0,1.32,1.31h33.66a1.317,1.317,0,0,0,1.32-1.31v-10.23A1.317,1.317,0,0,0,1255.83,2364.22Zm-32.33,10.23v-7.6h31v7.6h-31Zm30.23,21.58h-11.9a1.317,1.317,0,0,0-1.32,1.31v10.23a1.317,1.317,0,0,0,1.32,1.31h11.9a1.325,1.325,0,0,0,1.33-1.31v-10.23A1.325,1.325,0,0,0,1253.73,2396.03Zm-1.32,10.23h-9.25v-7.6h9.25v7.6Z" transform="translate(-1176 -2346)"/>
</svg>
