<svg width="20" height="20" viewBox="0 0 20 20" fill="none" xmlns="http://www.w3.org/2000/svg">
<path d="M0 15.625C0 18.0412 1.95875 20 4.375 20H15.625C18.0412 20 20 18.0412 20 15.625V14.7368H0V15.625Z" fill="#73AF00"/>
<path d="M15.625 0H4.375C1.95875 0 0 1.95875 0 4.375V14.7368H20V4.375C20 1.95875 18.0412 0 15.625 0Z" fill="#FF4B55"/>
<path d="M0 4.376V15.626C0 17.9871 1.87055 19.9111 4.21051 19.9976V0.00439453C1.87055 0.090918 0 2.01486 0 4.376Z" fill="#F5F5F5"/>
<path d="M2.57238 14.7594H2.47793V14.4985H2.1991V14.7594H2.01289V14.4985H1.73504V14.7594H1.64242V15.0203H1.54883V15.3719H1.64242V15.6327H1.73504V15.8935H2.01289V15.6327H2.1991V15.8935H2.47793V15.6327H2.57238V15.3719H2.66316V15.0203H2.57238V14.7594ZM2.01289 15.2849H1.92125V15.4588H1.82668V15.2849H1.73504V15.1072H1.82668V14.9333H1.92125V15.1072H2.01289V15.2849V15.2849ZM2.47793 15.2849H2.38629V15.4588H2.2927V15.2849H2.1991V15.1072H2.2927V14.9333H2.38629V15.1072H2.47793V15.2849Z" fill="#FF4B55"/>
<path d="M3.12582 5.24047H3.21746V5.50137H3.49723V5.24047H3.58984V4.97965H3.68148V4.63184H3.58984V4.36727H3.49723V4.10645H3.21746V4.36727H3.12582V4.63184H3.03223V4.97965H3.12578L3.12582 5.24047ZM3.21746 4.71504H3.31008V4.54492H3.40367V4.71504H3.49727V4.89273H3.40367V5.06656H3.31008V4.89273H3.21746V4.71504Z" fill="#FF4B55"/>
<path d="M2.19793 3.41089H2.01172V3.93261H2.19793V3.41089Z" fill="#FF4B55"/>
<path d="M1.08391 14.7594H0.990312V14.4985H0.712461V14.7594H0.619844V15.0203H0.526367V15.3719H0.619844V15.6327H0.712461V15.8935H0.990312V15.6327H1.08391V15.3719H1.17469V15.0203H1.08391C1.08391 15.0203 1.08391 14.7594 1.08391 14.7594ZM0.990312 15.2849H0.899648V15.4588H0.806055V15.2849H0.712461V15.1072H0.806055V14.9333H0.899648V15.1072H0.990312C0.990312 15.1072 0.990312 15.2849 0.990312 15.2849Z" fill="#FF4B55"/>
<path d="M2.19793 16.071H2.01172V16.5928H2.19793V16.071Z" fill="#FF4B55"/>
<path d="M3.68434 18.6042H3.49902V19.126H3.68434V18.6042Z" fill="#FF4B55"/>
<path d="M1.45477 17.2925H1.27051V17.7272H1.45477V17.2925Z" fill="#FF4B55"/>
<path d="M1.64254 18.6041H1.8268V18.1656H2.01301V17.7271H2.19922V18.1656H2.38637V18.6041H2.57246V19.0388H2.7577V19.4737H2.94301V19.0388H3.12824V18.6041H3.31437V18.1656H3.50055V17.7271H3.68492V17.2923H3.49961V16.8537H3.31441V16.419H3.12828V15.9805H2.94305V15.5458H2.75773V15.9805H2.57066V16.419H2.38641V16.8537H2.19926V17.2923H2.01305V16.8537H1.82684V16.419H1.64254V15.9805H1.45535V15.5458H1.27109V15.9805H1.08488V16.419H0.900625V16.8537H0.713438V17.2923H0.527344V17.7077C0.530859 17.7142 0.534531 17.7206 0.538125 17.7271H0.713477V18.0187C0.745977 18.0683 0.779297 18.1174 0.81375 18.1655H0.900664V18.2827C1.11578 18.5635 1.36414 18.8175 1.63988 19.0388H1.64254V18.6041ZM2.38637 17.2924H2.57246V16.8538H2.7577V16.4191H2.94301V16.8538H3.12824V17.2924H3.31437V17.7271H3.12824V18.1656H2.94301V18.6041H2.7577V18.1656H2.57246V17.7271H2.38637V17.2924V17.2924ZM1.45539 18.6041H1.27113V18.1656H1.08492V17.7271H0.900664V17.2923H1.08492V16.8537H1.27113V16.419H1.45539V16.8537H1.64258V17.2923H1.82684V17.7271H1.64254V18.1656H1.45535L1.45539 18.6041Z" fill="#FF4B55"/>
<path d="M2.19793 0.87793H2.01172V1.39965H2.19793V0.87793Z" fill="#FF4B55"/>
<path d="M2.19793 18.6042H2.01172V19.126H2.19793V18.6042Z" fill="#FF4B55"/>
<path d="M0.712461 3.41089H0.526367V3.93261H0.712461V3.41089Z" fill="#FF4B55"/>
<path d="M1.64242 5.24425H1.73504V5.50515H2.01289V5.24425H2.1991V5.50515H2.47793V5.24425H2.57238V4.97964H2.66316V4.63183H2.57238V4.36726H2.47793V4.11023H2.1991V4.36726H2.01289V4.11023H1.73504V4.36726H1.64242V4.63183H1.54883V4.97964H1.64242V5.24425ZM2.1991 4.71882H2.2927V4.54492H2.38629V4.71882H2.47793V4.89273H2.38629V5.07042H2.2927V4.89273H2.1991V4.71882V4.71882ZM1.73504 4.71882H1.82668V4.54492H1.92125V4.71882H2.01289V4.89273H1.92125V5.07042H1.82668V4.89273H1.73504V4.71882V4.71882Z" fill="#FF4B55"/>
<path d="M0.712461 7.86401H0.526367V8.21175H0.712461V7.86401Z" fill="#FF4B55"/>
<path d="M3.68434 0.87793H3.49902V1.39965H3.68434V0.87793Z" fill="#FF4B55"/>
<path d="M0.712461 5.67896H0.526367V6.20435H0.712461V5.67896Z" fill="#FF4B55"/>
<path d="M0.712461 10.0039V10.0001V9.73926H0.526367V10.0001V10.0039V10.2647H0.712461V10.0039Z" fill="#FF4B55"/>
<path d="M2.19793 5.67896H2.01172V6.20435H2.19793V5.67896Z" fill="#FF4B55"/>
<path d="M0.712461 13.7992H0.526367V14.3208H0.712461V13.7992Z" fill="#FF4B55"/>
<path d="M0.619844 5.24425H0.712461V5.50515H0.990312V5.24425H1.08391V4.97964H1.17469V4.63183H1.08391V4.36726H0.990312V4.11023H0.712461V4.36726H0.619844V4.63183H0.526367V4.97964H0.619844C0.619844 4.97964 0.619844 5.24425 0.619844 5.24425ZM0.712461 4.71882H0.804219V4.54492H0.899648V4.71882H0.990312V4.89273H0.899648V5.07042H0.804219V4.89273H0.712461C0.712461 4.89273 0.712461 4.71882 0.712461 4.71882Z" fill="#FF4B55"/>
<path d="M0.712461 16.071H0.526367V16.5928H0.712461V16.071Z" fill="#FF4B55"/>
<path d="M0.712461 11.7917H0.526367V12.1395H0.712461V11.7917Z" fill="#FF4B55"/>
<path d="M2.94215 17.2925H2.75684V17.7272H2.94215V17.2925Z" fill="#FF4B55"/>
<path d="M2.19793 10.484H2.01172V10.9187H2.19793V10.484Z" fill="#FF4B55"/>
<path d="M2.47754 10.0001V10.0039V10.2647H2.66277V10.0039V10.0001V9.73926H2.47754V10.0001Z" fill="#FF4B55"/>
<path d="M2.19793 9.08521H2.01172V9.51993H2.19793V9.08521Z" fill="#FF4B55"/>
<path d="M1.735 10.0039V10.0001V9.73926H1.54883V10.0001V10.0039V10.2647H1.735V10.0039Z" fill="#FF4B55"/>
<path d="M2.29203 9.60677H2.19844V9.73907H2.01223V9.60677H1.92059V9.43286H1.73438V9.69368H1.82602V9.82599H1.92059V9.99989V10.0037V10.1738H1.82602V10.3061H1.73438V10.5669H1.92059V10.3931H2.01223V10.2645H2.19844V10.3931H2.29203V10.5669H2.47727V10.3061H2.38559V10.1738H2.29203V10.0037V9.99989V9.82599H2.38559V9.69368H2.47727V9.43286H2.29203V9.60677Z" fill="#FF4B55"/>
<path d="M3.68434 3.41089H3.49902V3.93261H3.68434V3.41089Z" fill="#FF4B55"/>
<path d="M3.68434 5.67896H3.49902V6.20435H3.68434V5.67896Z" fill="#FF4B55"/>
<path d="M3.49961 6.4654H3.31441V6.02681H3.12828V5.59208H2.94305V5.15356H2.75773V5.59208H2.57066V6.02681H2.38641V6.4654H2.19926V6.81313V6.90013H2.01305V6.4654H1.82684V6.02681H1.64254V5.59208H1.45535V5.15356H1.27109V5.59208H1.08488V6.02681H0.898672V6.4654H0.713437V6.81313V6.90013H0.527344V7.33864H0.713437V7.77716H0.898672V8.21188H1.08488V8.64673H1.27109V8.21188H1.45535V7.77716H1.64254V7.33864H1.45535V6.81313H1.64254V6.90013V7.1647H1.8268V7.86411H1.92137V8.29505L1.64254 8.29884V8.64665H1.45535V8.90747H1.27109V9.34599H1.08488V8.90747H0.898672V8.64665H0.713437V8.38575H0.527344V9.17208H0.713437V9.52368H0.898672V9.8261H1.08488V10V10.0038V10.1739H0.898672V10.4839H0.713437V10.8317H0.527344V11.618H0.713437V11.3533H0.898672V11.0925H1.08488V10.6578H1.27109V11.0925H1.45535V11.3534H1.64254V11.705L1.92137 11.7088V12.1397H1.8268V12.8391H1.64254V13.0999V13.1907H1.45535V12.6615H1.64254V12.2267H1.45535V11.792H1.27109V11.3534H1.08488V11.792H0.898672V12.2267H0.713437V12.6615H0.527344V13.1H0.713437V13.1908V13.5347H0.900625V13.9733H1.08488V14.4118H1.27109V14.8465H1.45535V14.4117H1.64254V13.9732H1.8268V13.5346H2.01301V13.0999H2.19922V13.1907V13.5346H2.38637V13.9732H2.57246V14.4117H2.7577V14.8465H2.94301V14.4117H3.12824V13.9732H3.31437V13.5346H3.49961V13.0999H3.68492V12.6614H3.49961V12.2266H3.31441V11.7919H3.12828V11.3533H2.94305V11.7919H2.75773V12.2266H2.57066V12.6614H2.75773V13.0999V13.1907H2.57066V13.0999V12.8391H2.38641V12.1397H2.35988H2.29281V11.7049H2.35988H2.41H2.47805H2.5725V11.3533H2.75773V11.0925H2.94305V10.6578H3.12828V11.0925H3.31441V11.3534H3.50059V11.6181H3.68496V10.8317H3.50059V10.4839H3.31441V10.174H3.12828V10.0038V10V9.8261H3.31441V9.52368H3.50059V9.17208H3.68496V8.38575H3.50059V8.64665H3.31441V8.90747H3.12828V9.34599H2.94305V8.90747H2.75773V8.64665H2.5725V8.29884H2.47805H2.41H2.35988H2.29281V7.86411H2.35988H2.38641V7.1647H2.57066V6.90013V6.81313H2.75773V6.90013V7.33864H2.57066V7.77716H2.75773V8.21188H2.94305V8.64673H3.12828V8.21188H3.31441V7.77716H3.49965V7.33864H3.68496V6.90013H3.49965L3.49961 6.4654ZM2.5725 9.17208V9.34599V9.52368H2.75773V9.8261H2.94305V10V10.1739H2.75773V10.4839H2.5725V10.6578V10.8317H2.29281V11.2438H2.19922V11.4403H2.1066H2.01301V11.2438H1.92137V10.8317H1.64254V10.4839H1.45535V10.1739H1.27109V10.0075V9.99622V9.8261H1.45535V9.52368H1.64254V9.17208H1.92137V8.76009H2.01301V8.55966H2.1066H2.19922V8.75622H2.29281V9.17208H2.5725Z" fill="#FF4B55"/>
<path d="M3.68434 7.86401H3.49902V8.21175H3.68434V7.86401Z" fill="#FF4B55"/>
<path d="M0.713477 2.71152V3.14625H0.900664V3.58477H1.08492V4.02328H1.27113V4.45801H1.45539V4.02328H1.64258V3.58473H1.82684V3.14625H2.01305V2.71152H2.19926V3.14625H2.38641V3.58477H2.57066V4.02328H2.75773V4.45801H2.94305V4.02328H3.12828V3.58473H3.31441V3.14625H3.49965V2.71152H3.68496V2.27289H3.50059V1.83816H3.31441V1.39969H3.12828V0.964961H2.94305V0.526367H2.75773V0.964961H2.5725V1.39969H2.38641V1.8382H2.19926V2.27293H2.01305V1.83816H1.82684V1.39969H1.64254V0.964961H1.6352C1.36129 1.18535 1.11453 1.43805 0.900625 1.7173V1.8382H0.810977C0.7775 1.88516 0.745117 1.93297 0.713477 1.98129V2.27293H0.538125C0.53457 2.27941 0.530898 2.28582 0.527344 2.29234V2.71152H0.713477ZM2.38637 2.27289H2.57246V1.83816H2.7577V1.39969H2.94301V1.8382H3.12824V2.27293H3.31437V2.71152H3.12824V3.14625H2.94301V3.58477H2.7577V3.14625H2.57246V2.71152H2.38637V2.27289V2.27289ZM0.900664 2.27289H1.08492V1.83816H1.27113V1.39969H1.45539V1.8382H1.64258V2.27293H1.82684V2.71152H1.64254V3.14625H1.45535V3.58477H1.27109V3.14625H1.08488V2.71152H0.900625V2.27289H0.900664Z" fill="#FF4B55"/>
<path d="M3.58984 15.372H3.68148V15.0242H3.58984V14.7596H3.49723V14.5024H3.21746V14.7596H3.12582V15.0242H3.03223V15.372H3.12578V15.6328H3.21742V15.8936H3.49719V15.6328H3.5898L3.58984 15.372ZM3.49723 15.285H3.40363V15.4627H3.31004V15.285H3.21742V15.1112H3.31004V14.9372H3.40363V15.1112H3.49723V15.285Z" fill="#FF4B55"/>
<path d="M3.49902 10.0001V10.0039V10.2647H3.68438V10.0039V10.0001V9.73926H3.49902V10.0001Z" fill="#FF4B55"/>
<path d="M1.45477 2.27307H1.27051V2.71166H1.45477V2.27307Z" fill="#FF4B55"/>
<path d="M2.19793 13.7992H2.01172V14.3208H2.19793V13.7992Z" fill="#FF4B55"/>
<path d="M3.68434 13.7992H3.49902V14.3208H3.68434V13.7992Z" fill="#FF4B55"/>
<path d="M3.68434 16.071H3.49902V16.5928H3.68434V16.071Z" fill="#FF4B55"/>
<path d="M3.68434 11.7917H3.49902V12.1395H3.68434V11.7917Z" fill="#FF4B55"/>
<path d="M2.94215 2.27307H2.75684V2.71166H2.94215V2.27307Z" fill="#FF4B55"/>
</svg>
